<?xml version="1.0" encoding="utf-8"?>
<!-- Generator: Adobe Illustrator 21.0.2, SVG Export Plug-In . SVG Version: 6.00 Build 0)  -->
<svg version="1.1" id="Layer_1" xmlns="http://www.w3.org/2000/svg" xmlns:xlink="http://www.w3.org/1999/xlink" x="0px" y="0px"
	 viewBox="-101 573 28 28" style="enable-background:new -101 573 28 28;" xml:space="preserve">
<style type="text/css">
	.st0{fill:#475993;}
</style>
<path class="st0" d="M-76.8,573h-20.5c-2.1,0-3.8,1.7-3.8,3.8v20.5c0,2.1,1.7,3.8,3.8,3.8h10.1l0-10h-2.6c-0.3,0-0.6-0.3-0.6-0.6
	l0-3.2c0-0.3,0.3-0.6,0.6-0.6h2.6v-3.1c0-3.6,2.2-5.6,5.4-5.6h2.6c0.3,0,0.6,0.3,0.6,0.6v2.7c0,0.3-0.3,0.6-0.6,0.6l-1.6,0
	c-1.8,0-2.1,0.8-2.1,2.1v2.7h3.9c0.4,0,0.7,0.3,0.6,0.7l-0.4,3.2c0,0.3-0.3,0.5-0.6,0.5h-3.5l0,10h6c2.1,0,3.8-1.7,3.8-3.8v-20.5
	C-73,574.7-74.7,573-76.8,573z"/>
</svg>
