<?xml version="1.0" encoding="iso-8859-1"?>
<!-- Generator: Adobe Illustrator 21.0.2, SVG Export Plug-In . SVG Version: 6.00 Build 0)  -->
<svg version="1.1" id="Layer_1" xmlns="http://www.w3.org/2000/svg" xmlns:xlink="http://www.w3.org/1999/xlink" x="0px" y="0px"
	 viewBox="-49 141 512 512" style="enable-background:new -49 141 512 512;" xml:space="preserve">
<path style="fill:#F5F5F5;" d="M454.172,564.724H-40.172c-4.875,0-8.828-3.953-8.828-8.828V238.103c0-4.875,3.953-8.828,8.828-8.828
	h494.345c4.875,0,8.828,3.953,8.828,8.828v317.793C463,560.772,459.047,564.724,454.172,564.724z"/>
<g>
	<path style="fill:#FF4B55;" d="M463,255.08H-49v-16.977c0-4.875,3.953-8.828,8.828-8.828h494.345c4.875,0,8.828,3.953,8.828,8.828
		L463,255.08L463,255.08z"/>
	<rect x="-49" y="332.49" style="fill:#FF4B55;" width="512" height="25.804"/>
	<rect x="-49" y="280.88" style="fill:#FF4B55;" width="512" height="25.804"/>
	<path style="fill:#FF4B55;" d="M463,409.902H-40.172c-4.875,0-8.828-3.953-8.828-8.828v-16.977h512V409.902z"/>
	<rect x="-49" y="487.32" style="fill:#FF4B55;" width="512" height="25.804"/>
	<path style="fill:#FF4B55;" d="M454.172,564.724H-40.172c-4.875,0-8.828-3.953-8.828-8.828V538.92h512v16.977
		C463,560.772,459.047,564.724,454.172,564.724z"/>
	<rect x="-49" y="435.71" style="fill:#FF4B55;" width="512" height="25.804"/>
</g>
<path style="fill:#41479B;" d="M180.517,229.276H-40.172c-4.875,0-8.828,3.952-8.828,8.827v162.97c0,4.875,3.953,8.828,8.828,8.828
	h220.69c4.875,0,8.828-3.953,8.828-8.828v-162.97C189.345,233.228,185.392,229.276,180.517,229.276z"/>
<g>
	<path style="fill:#F5F5F5;" d="M-24.211,249.537l1.954,5.86l6.177,0.047c0.8,0.007,1.131,1.027,0.488,1.502l-4.969,3.67
		l1.864,5.889c0.242,0.762-0.627,1.394-1.278,0.928L-25,263.842l-5.025,3.592c-0.651,0.465-1.518-0.166-1.278-0.928l1.864-5.889
		l-4.969-3.67c-0.643-0.476-0.312-1.495,0.488-1.502l6.177-0.047l1.954-5.86C-25.537,248.778-24.465,248.778-24.211,249.537z"/>
	<path style="fill:#F5F5F5;" d="M-24.211,280.191l1.954,5.86l6.177,0.047c0.8,0.007,1.131,1.027,0.488,1.502l-4.969,3.67
		l1.864,5.889c0.242,0.762-0.627,1.394-1.278,0.928L-25,294.496l-5.025,3.592c-0.651,0.465-1.518-0.166-1.278-0.928l1.864-5.889
		l-4.969-3.67c-0.643-0.476-0.312-1.495,0.488-1.502l6.177-0.047l1.954-5.86C-25.537,279.433-24.465,279.433-24.211,280.191z"/>
	<path style="fill:#F5F5F5;" d="M-24.211,310.845l1.954,5.86l6.177,0.047c0.8,0.007,1.131,1.027,0.488,1.502l-4.969,3.67
		l1.864,5.889c0.242,0.762-0.627,1.394-1.278,0.928L-25,325.15l-5.025,3.592c-0.651,0.465-1.518-0.166-1.278-0.928l1.864-5.889
		l-4.969-3.67c-0.643-0.476-0.312-1.495,0.488-1.502l6.177-0.047l1.954-5.86C-25.537,310.087-24.465,310.087-24.211,310.845z"/>
	<path style="fill:#F5F5F5;" d="M-24.211,341.5l1.954,5.86l6.177,0.047c0.8,0.007,1.131,1.027,0.488,1.502l-4.969,3.67l1.864,5.889
		c0.242,0.762-0.627,1.394-1.278,0.928L-25,355.805l-5.025,3.592c-0.651,0.465-1.518-0.166-1.278-0.928l1.864-5.889l-4.969-3.67
		c-0.643-0.476-0.312-1.495,0.488-1.502l6.177-0.047l1.954-5.86C-25.537,340.741-24.465,340.741-24.211,341.5z"/>
	<path style="fill:#F5F5F5;" d="M-24.211,372.154l1.954,5.86l6.177,0.047c0.8,0.007,1.131,1.027,0.488,1.502l-4.969,3.67
		l1.864,5.889c0.242,0.762-0.627,1.394-1.278,0.928L-25,386.459l-5.025,3.592c-0.651,0.465-1.518-0.166-1.278-0.928l1.864-5.889
		l-4.969-3.67c-0.643-0.476-0.312-1.495,0.488-1.502l6.177-0.047l1.954-5.86C-25.537,371.394-24.465,371.394-24.211,372.154z"/>
	<path style="fill:#F5F5F5;" d="M-0.418,264.566l1.954,5.86l6.177,0.047c0.8,0.007,1.131,1.027,0.488,1.502l-4.969,3.67l1.864,5.889
		c0.242,0.762-0.627,1.394-1.278,0.928l-5.025-3.592l-5.025,3.592c-0.651,0.465-1.518-0.166-1.278-0.928l1.864-5.889l-4.969-3.67
		c-0.643-0.476-0.312-1.495,0.488-1.502l6.177-0.047l1.954-5.86C-1.745,263.808-0.671,263.808-0.418,264.566z"/>
	<path style="fill:#F5F5F5;" d="M-0.418,295.221l1.954,5.86l6.177,0.047c0.8,0.007,1.131,1.027,0.488,1.502l-4.969,3.67l1.864,5.889
		c0.242,0.762-0.627,1.394-1.278,0.928l-5.025-3.592l-5.025,3.592c-0.651,0.465-1.518-0.165-1.278-0.928l1.864-5.889l-4.969-3.67
		c-0.643-0.476-0.312-1.495,0.488-1.502l6.177-0.047l1.954-5.86C-1.745,294.462-0.671,294.462-0.418,295.221z"/>
	<path style="fill:#F5F5F5;" d="M-0.418,325.875l1.954,5.86l6.177,0.047c0.8,0.007,1.131,1.027,0.488,1.502l-4.969,3.67l1.864,5.889
		c0.242,0.762-0.627,1.394-1.278,0.928l-5.025-3.592l-5.025,3.592c-0.651,0.465-1.518-0.166-1.278-0.928l1.864-5.889l-4.969-3.67
		c-0.643-0.476-0.312-1.495,0.488-1.502l6.177-0.047l1.954-5.86C-1.745,325.116-0.671,325.116-0.418,325.875z"/>
	<path style="fill:#F5F5F5;" d="M-0.418,356.529l1.954,5.86l6.177,0.047c0.8,0.007,1.131,1.027,0.488,1.502l-4.969,3.67l1.864,5.889
		c0.242,0.762-0.627,1.394-1.278,0.928l-5.025-3.592l-5.025,3.592c-0.651,0.465-1.518-0.166-1.278-0.928l1.864-5.889l-4.969-3.67
		c-0.643-0.476-0.312-1.495,0.488-1.502l6.177-0.047l1.954-5.86C-1.745,355.771-0.671,355.771-0.418,356.529z"/>
	<path style="fill:#F5F5F5;" d="M23.375,249.537l1.954,5.86l6.177,0.047c0.8,0.007,1.131,1.027,0.488,1.502l-4.969,3.67l1.864,5.889
		c0.242,0.762-0.627,1.394-1.278,0.928l-5.025-3.592l-5.025,3.592c-0.651,0.465-1.518-0.166-1.278-0.928l1.864-5.889l-4.969-3.67
		c-0.643-0.476-0.312-1.495,0.488-1.502l6.177-0.047l1.954-5.86C22.049,248.778,23.122,248.778,23.375,249.537z"/>
	<path style="fill:#F5F5F5;" d="M23.375,280.191l1.954,5.86l6.177,0.047c0.8,0.007,1.131,1.027,0.488,1.502l-4.969,3.67l1.864,5.889
		c0.242,0.762-0.627,1.394-1.278,0.928l-5.025-3.592l-5.025,3.592c-0.651,0.465-1.518-0.166-1.278-0.928l1.864-5.889l-4.969-3.67
		c-0.643-0.476-0.312-1.495,0.488-1.502l6.177-0.047l1.954-5.86C22.049,279.433,23.122,279.433,23.375,280.191z"/>
	<path style="fill:#F5F5F5;" d="M23.375,310.845l1.954,5.86l6.177,0.047c0.8,0.007,1.131,1.027,0.488,1.502l-4.969,3.67l1.864,5.889
		c0.242,0.762-0.627,1.394-1.278,0.928l-5.025-3.592l-5.025,3.592c-0.651,0.465-1.518-0.166-1.278-0.928l1.864-5.889l-4.969-3.67
		c-0.643-0.476-0.312-1.495,0.488-1.502l6.177-0.047l1.954-5.86C22.049,310.087,23.122,310.087,23.375,310.845z"/>
	<path style="fill:#F5F5F5;" d="M23.375,341.5l1.954,5.86l6.177,0.047c0.8,0.007,1.131,1.027,0.488,1.502l-4.969,3.67l1.864,5.889
		c0.242,0.762-0.627,1.394-1.278,0.928l-5.025-3.592l-5.025,3.592c-0.651,0.465-1.518-0.166-1.278-0.928l1.864-5.889l-4.969-3.67
		c-0.643-0.476-0.312-1.495,0.488-1.502l6.177-0.047l1.954-5.86C22.049,340.741,23.122,340.741,23.375,341.5z"/>
	<path style="fill:#F5F5F5;" d="M23.375,372.154l1.954,5.86l6.177,0.047c0.8,0.007,1.131,1.027,0.488,1.502l-4.969,3.67l1.864,5.889
		c0.242,0.762-0.627,1.394-1.278,0.928l-5.025-3.592l-5.025,3.592c-0.651,0.465-1.518-0.166-1.278-0.928l1.864-5.889l-4.969-3.67
		c-0.643-0.476-0.312-1.495,0.488-1.502l6.177-0.047l1.954-5.86C22.049,371.394,23.122,371.394,23.375,372.154z"/>
	<path style="fill:#F5F5F5;" d="M47.169,264.566l1.954,5.86l6.177,0.047c0.8,0.007,1.131,1.027,0.488,1.502l-4.969,3.67l1.864,5.889
		c0.242,0.762-0.627,1.394-1.278,0.928l-5.025-3.592l-5.025,3.592c-0.651,0.465-1.518-0.166-1.278-0.928l1.864-5.889l-4.969-3.67
		c-0.643-0.476-0.312-1.495,0.488-1.502l6.177-0.047l1.954-5.86C45.842,263.808,46.916,263.808,47.169,264.566z"/>
	<path style="fill:#F5F5F5;" d="M47.169,295.221l1.954,5.86l6.177,0.047c0.8,0.007,1.131,1.027,0.488,1.502l-4.969,3.67l1.864,5.889
		c0.242,0.762-0.627,1.394-1.278,0.928l-5.025-3.592l-5.025,3.592c-0.651,0.465-1.518-0.165-1.278-0.928l1.864-5.889l-4.969-3.67
		c-0.643-0.476-0.312-1.495,0.488-1.502l6.177-0.047l1.954-5.86C45.842,294.462,46.916,294.462,47.169,295.221z"/>
	<path style="fill:#F5F5F5;" d="M47.169,325.875l1.954,5.86l6.177,0.047c0.8,0.007,1.131,1.027,0.488,1.502l-4.969,3.67l1.864,5.889
		c0.242,0.762-0.627,1.394-1.278,0.928l-5.025-3.592l-5.025,3.592c-0.651,0.465-1.518-0.166-1.278-0.928l1.864-5.889l-4.969-3.67
		c-0.643-0.476-0.312-1.495,0.488-1.502l6.177-0.047l1.954-5.86C45.842,325.116,46.916,325.116,47.169,325.875z"/>
	<path style="fill:#F5F5F5;" d="M47.169,356.529l1.954,5.86l6.177,0.047c0.8,0.007,1.131,1.027,0.488,1.502l-4.969,3.67l1.864,5.889
		c0.242,0.762-0.627,1.394-1.278,0.928l-5.025-3.592l-5.025,3.592c-0.651,0.465-1.518-0.166-1.278-0.928l1.864-5.889l-4.969-3.67
		c-0.643-0.476-0.312-1.495,0.488-1.502l6.177-0.047l1.954-5.86C45.842,355.771,46.916,355.771,47.169,356.529z"/>
	<path style="fill:#F5F5F5;" d="M70.962,249.537l1.954,5.86l6.177,0.047c0.8,0.007,1.131,1.027,0.488,1.502l-4.969,3.67l1.864,5.889
		c0.242,0.762-0.627,1.394-1.278,0.928l-5.026-3.592l-5.025,3.592c-0.651,0.465-1.518-0.166-1.278-0.928l1.864-5.889l-4.969-3.67
		c-0.643-0.476-0.312-1.495,0.488-1.502l6.177-0.047l1.954-5.86C69.636,248.778,70.709,248.778,70.962,249.537z"/>
	<path style="fill:#F5F5F5;" d="M70.962,280.191l1.954,5.86l6.177,0.047c0.8,0.007,1.131,1.027,0.488,1.502l-4.969,3.67l1.864,5.889
		c0.242,0.762-0.627,1.394-1.278,0.928l-5.026-3.592l-5.025,3.592c-0.651,0.465-1.518-0.166-1.278-0.928l1.864-5.889l-4.969-3.67
		c-0.643-0.476-0.312-1.495,0.488-1.502l6.177-0.047l1.954-5.86C69.636,279.433,70.709,279.433,70.962,280.191z"/>
	<path style="fill:#F5F5F5;" d="M70.962,310.845l1.954,5.86l6.177,0.047c0.8,0.007,1.131,1.027,0.488,1.502l-4.969,3.67l1.864,5.889
		c0.242,0.762-0.627,1.394-1.278,0.928l-5.026-3.592l-5.025,3.592c-0.651,0.465-1.518-0.166-1.278-0.928l1.864-5.889l-4.969-3.67
		c-0.643-0.476-0.312-1.495,0.488-1.502l6.177-0.047l1.954-5.86C69.636,310.087,70.709,310.087,70.962,310.845z"/>
	<path style="fill:#F5F5F5;" d="M70.962,341.5l1.954,5.86l6.177,0.047c0.8,0.007,1.131,1.027,0.488,1.502l-4.969,3.67l1.864,5.889
		c0.242,0.762-0.627,1.394-1.278,0.928l-5.026-3.592l-5.025,3.592c-0.651,0.465-1.518-0.166-1.278-0.928l1.864-5.889l-4.969-3.67
		c-0.643-0.476-0.312-1.495,0.488-1.502l6.177-0.047l1.954-5.86C69.636,340.741,70.709,340.741,70.962,341.5z"/>
	<path style="fill:#F5F5F5;" d="M70.962,372.154l1.954,5.86l6.177,0.047c0.8,0.007,1.131,1.027,0.488,1.502l-4.969,3.67l1.864,5.889
		c0.242,0.762-0.627,1.394-1.278,0.928l-5.026-3.592l-5.025,3.592c-0.651,0.465-1.518-0.166-1.278-0.928l1.864-5.889l-4.969-3.67
		c-0.643-0.476-0.312-1.495,0.488-1.502l6.177-0.047l1.954-5.86C69.636,371.394,70.709,371.394,70.962,372.154z"/>
	<path style="fill:#F5F5F5;" d="M94.755,264.566l1.954,5.86l6.177,0.047c0.8,0.007,1.131,1.027,0.488,1.502l-4.969,3.67l1.864,5.889
		c0.242,0.762-0.627,1.394-1.278,0.928l-5.025-3.592l-5.025,3.592c-0.651,0.465-1.518-0.166-1.278-0.928l1.864-5.889l-4.969-3.67
		c-0.643-0.476-0.312-1.495,0.488-1.502l6.177-0.047l1.954-5.86C93.43,263.808,94.502,263.808,94.755,264.566z"/>
	<path style="fill:#F5F5F5;" d="M94.755,295.221l1.954,5.86l6.177,0.047c0.8,0.007,1.131,1.027,0.488,1.502l-4.969,3.67l1.864,5.889
		c0.242,0.762-0.627,1.394-1.278,0.928l-5.025-3.592l-5.025,3.592c-0.651,0.465-1.518-0.165-1.278-0.928l1.864-5.889l-4.969-3.67
		c-0.643-0.476-0.312-1.495,0.488-1.502l6.177-0.047l1.954-5.86C93.43,294.462,94.502,294.462,94.755,295.221z"/>
	<path style="fill:#F5F5F5;" d="M94.755,325.875l1.954,5.86l6.177,0.047c0.8,0.007,1.131,1.027,0.488,1.502l-4.969,3.67l1.864,5.889
		c0.242,0.762-0.627,1.394-1.278,0.928l-5.025-3.592l-5.025,3.592c-0.651,0.465-1.518-0.166-1.278-0.928l1.864-5.889l-4.969-3.67
		c-0.643-0.476-0.312-1.495,0.488-1.502l6.177-0.047l1.954-5.86C93.43,325.116,94.502,325.116,94.755,325.875z"/>
	<path style="fill:#F5F5F5;" d="M94.755,356.529l1.954,5.86l6.177,0.047c0.8,0.007,1.131,1.027,0.488,1.502l-4.969,3.67l1.864,5.889
		c0.242,0.762-0.627,1.394-1.278,0.928l-5.025-3.592l-5.025,3.592c-0.651,0.465-1.518-0.166-1.278-0.928l1.864-5.889l-4.969-3.67
		c-0.643-0.476-0.312-1.495,0.488-1.502l6.177-0.047l1.954-5.86C93.43,355.771,94.502,355.771,94.755,356.529z"/>
	<path style="fill:#F5F5F5;" d="M118.549,249.537l1.954,5.86l6.177,0.047c0.8,0.007,1.131,1.027,0.488,1.502l-4.969,3.67
		l1.864,5.889c0.242,0.762-0.627,1.394-1.278,0.928l-5.025-3.592l-5.025,3.592c-0.651,0.465-1.518-0.166-1.278-0.928l1.864-5.889
		l-4.969-3.67c-0.643-0.476-0.312-1.495,0.488-1.502l6.177-0.047l1.954-5.86C117.222,248.778,118.296,248.778,118.549,249.537z"/>
	<path style="fill:#F5F5F5;" d="M118.549,280.191l1.954,5.86l6.177,0.047c0.8,0.007,1.131,1.027,0.488,1.502l-4.969,3.67
		l1.864,5.889c0.242,0.762-0.627,1.394-1.278,0.928l-5.025-3.592l-5.025,3.592c-0.651,0.465-1.518-0.166-1.278-0.928l1.864-5.889
		l-4.969-3.67c-0.643-0.476-0.312-1.495,0.488-1.502l6.177-0.047l1.954-5.86C117.222,279.433,118.296,279.433,118.549,280.191z"/>
	<path style="fill:#F5F5F5;" d="M118.549,310.845l1.954,5.86l6.177,0.047c0.8,0.007,1.131,1.027,0.488,1.502l-4.969,3.67
		l1.864,5.889c0.242,0.762-0.627,1.394-1.278,0.928l-5.025-3.592l-5.025,3.592c-0.651,0.465-1.518-0.166-1.278-0.928l1.864-5.889
		l-4.969-3.67c-0.643-0.476-0.312-1.495,0.488-1.502l6.177-0.047l1.954-5.86C117.222,310.087,118.296,310.087,118.549,310.845z"/>
	<path style="fill:#F5F5F5;" d="M118.549,341.5l1.954,5.86l6.177,0.047c0.8,0.007,1.131,1.027,0.488,1.502l-4.969,3.67l1.864,5.889
		c0.242,0.762-0.627,1.394-1.278,0.928l-5.025-3.592l-5.025,3.592c-0.651,0.465-1.518-0.166-1.278-0.928l1.864-5.889l-4.969-3.67
		c-0.643-0.476-0.312-1.495,0.488-1.502l6.177-0.047l1.954-5.86C117.222,340.741,118.296,340.741,118.549,341.5z"/>
	<path style="fill:#F5F5F5;" d="M118.549,372.154l1.954,5.86l6.177,0.047c0.8,0.007,1.131,1.027,0.488,1.502l-4.969,3.67
		l1.864,5.889c0.242,0.762-0.627,1.394-1.278,0.928l-5.025-3.592l-5.025,3.592c-0.651,0.465-1.518-0.166-1.278-0.928l1.864-5.889
		l-4.969-3.67c-0.643-0.476-0.312-1.495,0.488-1.502l6.177-0.047l1.954-5.86C117.222,371.394,118.296,371.394,118.549,372.154z"/>
	<path style="fill:#F5F5F5;" d="M142.342,264.566l1.954,5.86l6.177,0.047c0.8,0.007,1.131,1.027,0.488,1.502l-4.969,3.67
		l1.864,5.889c0.242,0.762-0.627,1.394-1.278,0.928l-5.025-3.592l-5.025,3.592c-0.651,0.465-1.518-0.166-1.278-0.928l1.864-5.889
		l-4.969-3.67c-0.643-0.476-0.312-1.495,0.488-1.502l6.177-0.047l1.954-5.86C141.016,263.808,142.09,263.808,142.342,264.566z"/>
	<path style="fill:#F5F5F5;" d="M142.342,295.221l1.954,5.86l6.177,0.047c0.8,0.007,1.131,1.027,0.488,1.502l-4.969,3.67
		l1.864,5.889c0.242,0.762-0.627,1.394-1.278,0.928l-5.025-3.592l-5.025,3.592c-0.651,0.465-1.518-0.165-1.278-0.928l1.864-5.889
		l-4.969-3.67c-0.643-0.476-0.312-1.495,0.488-1.502l6.177-0.047l1.954-5.86C141.016,294.462,142.09,294.462,142.342,295.221z"/>
	<path style="fill:#F5F5F5;" d="M142.342,325.875l1.954,5.86l6.177,0.047c0.8,0.007,1.131,1.027,0.488,1.502l-4.969,3.67
		l1.864,5.889c0.242,0.762-0.627,1.394-1.278,0.928l-5.025-3.592l-5.025,3.592c-0.651,0.465-1.518-0.166-1.278-0.928l1.864-5.889
		l-4.969-3.67c-0.643-0.476-0.312-1.495,0.488-1.502l6.177-0.047l1.954-5.86C141.016,325.116,142.09,325.116,142.342,325.875z"/>
	<path style="fill:#F5F5F5;" d="M142.342,356.529l1.954,5.86l6.177,0.047c0.8,0.007,1.131,1.027,0.488,1.502l-4.969,3.67
		l1.864,5.889c0.242,0.762-0.627,1.394-1.278,0.928l-5.025-3.592l-5.025,3.592c-0.651,0.465-1.518-0.166-1.278-0.928l1.864-5.889
		l-4.969-3.67c-0.643-0.476-0.312-1.495,0.488-1.502l6.177-0.047l1.954-5.86C141.016,355.771,142.09,355.771,142.342,356.529z"/>
	<path style="fill:#F5F5F5;" d="M166.136,249.537l1.954,5.86l6.177,0.047c0.8,0.007,1.131,1.027,0.488,1.502l-4.969,3.67
		l1.864,5.889c0.242,0.762-0.627,1.394-1.278,0.928l-5.025-3.592l-5.025,3.592c-0.651,0.465-1.518-0.166-1.278-0.928l1.864-5.889
		l-4.969-3.67c-0.643-0.476-0.312-1.495,0.488-1.502l6.177-0.047l1.954-5.86C164.81,248.778,165.882,248.778,166.136,249.537z"/>
	<path style="fill:#F5F5F5;" d="M166.136,280.191l1.954,5.86l6.177,0.047c0.8,0.007,1.131,1.027,0.488,1.502l-4.969,3.67
		l1.864,5.889c0.242,0.762-0.627,1.394-1.278,0.928l-5.025-3.592l-5.025,3.592c-0.651,0.465-1.518-0.166-1.278-0.928l1.864-5.889
		l-4.969-3.67c-0.643-0.476-0.312-1.495,0.488-1.502l6.177-0.047l1.954-5.86C164.81,279.433,165.882,279.433,166.136,280.191z"/>
	<path style="fill:#F5F5F5;" d="M166.136,310.845l1.954,5.86l6.177,0.047c0.8,0.007,1.131,1.027,0.488,1.502l-4.969,3.67
		l1.864,5.889c0.242,0.762-0.627,1.394-1.278,0.928l-5.025-3.592l-5.025,3.592c-0.651,0.465-1.518-0.166-1.278-0.928l1.864-5.889
		l-4.969-3.67c-0.643-0.476-0.312-1.495,0.488-1.502l6.177-0.047l1.954-5.86C164.81,310.087,165.882,310.087,166.136,310.845z"/>
	<path style="fill:#F5F5F5;" d="M166.136,341.5l1.954,5.86l6.177,0.047c0.8,0.007,1.131,1.027,0.488,1.502l-4.969,3.67l1.864,5.889
		c0.242,0.762-0.627,1.394-1.278,0.928l-5.025-3.592l-5.025,3.592c-0.651,0.465-1.518-0.166-1.278-0.928l1.864-5.889l-4.969-3.67
		c-0.643-0.476-0.312-1.495,0.488-1.502l6.177-0.047l1.954-5.86C164.81,340.741,165.882,340.741,166.136,341.5z"/>
	<path style="fill:#F5F5F5;" d="M166.136,372.154l1.954,5.86l6.177,0.047c0.8,0.007,1.131,1.027,0.488,1.502l-4.969,3.67
		l1.864,5.889c0.242,0.762-0.627,1.394-1.278,0.928l-5.025-3.592l-5.025,3.592c-0.651,0.465-1.518-0.166-1.278-0.928l1.864-5.889
		l-4.969-3.67c-0.643-0.476-0.312-1.495,0.488-1.502l6.177-0.047l1.954-5.86C164.81,371.394,165.882,371.394,166.136,372.154z"/>
</g>
</svg>
