<?xml version="1.0" encoding="utf-8"?>
<!-- Generator: Adobe Illustrator 21.0.2, SVG Export Plug-In . SVG Version: 6.00 Build 0)  -->
<svg version="1.1" id="Слой_1" xmlns="http://www.w3.org/2000/svg" xmlns:xlink="http://www.w3.org/1999/xlink" x="0px" y="0px"
	 viewBox="0 0 32 28.1" style="enable-background:new 0 0 32 28.1;" xml:space="preserve">
<style type="text/css">
	.st0{fill:#61B826;}
</style>
<path class="st0" d="M16,2.8L2,16.8c-2.6,2.6-2.6,6.8,0,9.4c1.3,1.3,3,1.9,4.7,1.9s3.4-0.8,4.5-2.1l12.8-12.8c1.5-1.5,1.5-3.7,0-5.3
	c-1.5-1.5-3.7-1.5-5.3,0l-8.8,8.8c-0.4,0.4-0.4,0.9,0,1.3c0.4,0.4,0.9,0.4,1.3,0L20,9.3c0.8-0.8,1.9-0.8,2.6,0
	c0.8,0.8,0.8,1.9,0,2.6L9.8,24.7c-1.7,1.9-4.7,1.9-6.6,0c-1.9-1.7-1.9-4.7,0-6.6L17.4,4.1c3-3,7.7-3,10.7,0c3,3,3,7.7,0,10.7
	L17.9,24.9c-0.4,0.4-0.4,0.9,0,1.3c0.4,0.4,0.9,0.4,1.3,0l10.1-10.1c3.6-3.7,3.6-9.8,0-13.3C25.6-1,19.6-0.8,16,2.8z"/>
</svg>
