<?xml version="1.0" encoding="utf-8"?>
<!-- Generator: Adobe Illustrator 21.0.2, SVG Export Plug-In . SVG Version: 6.00 Build 0)  -->
<svg version="1.1" id="Layer_1" xmlns="http://www.w3.org/2000/svg" xmlns:xlink="http://www.w3.org/1999/xlink" x="0px" y="0px"
	 viewBox="0 0 135 153" style="enable-background:new 0 0 135 153;" xml:space="preserve">
<style type="text/css">
	.st0{fill:url(#SVGID_1_);}
	.st1{fill:#AFAFAF;}
</style>
<g>
	<g>
		<linearGradient id="SVGID_1_" gradientUnits="userSpaceOnUse" x1="85.0252" y1="14.3175" x2="35.9035" y2="99.3987">
			<stop  offset="0" style="stop-color:#ECB591"/>
			<stop  offset="1" style="stop-color:#9D6C57"/>
		</linearGradient>
		<path class="st0" d="M67,56c-4.5,0-8.2,3.7-8.2,8.2c0,4.5,3.7,8.2,8.2,8.2s8.2-3.7,8.2-8.2C75.3,59.7,71.6,56,67,56z M67,70.5
			c-3.5,0-6.3-2.8-6.3-6.3c0-3.5,2.8-6.3,6.3-6.3s6.3,2.8,6.3,6.3C73.3,67.7,70.5,70.5,67,70.5z M95.4,20.6c-1.3-1.3-3.1-2.1-5-2.1
			c-1.9,0-3.6,0.7-5,2.1c-0.5,0.5-0.9,1-1.2,1.6c0,0-0.1,0.1-0.1,0.2l-3.3,7l-0.2-0.2c-0.9-0.9-2.1-1.2-3.3-1
			c-1,0.2-1.8,0.7-2.4,1.5c0.1-0.9-0.1-1.8-0.7-2.6c-0.7-1-1.8-1.6-3-1.6h-0.2l2.6-7.2c0-0.1,0-0.1,0-0.2c0.2-0.7,0.3-1.3,0.3-2
			c0-3.9-3.2-7-7-7c-3.9,0-7,3.2-7,7c0,0.7,0.1,1.5,0.3,2.2c0,0,0,0,0,0c0,0,0,0,0,0l2.6,7.2h-0.3c-1.2,0-2.3,0.6-3,1.6
			c-0.4,0.6-0.7,1.3-0.7,2.1c-0.5-0.5-1.2-0.8-1.9-1c-1.2-0.2-2.4,0.2-3.3,1l-0.2,0.2l-3.3-7c0-0.1-0.1-0.1-0.1-0.1
			c-0.3-0.6-0.7-1.2-1.2-1.6c-1.3-1.3-3.1-2.1-5-2.1s-3.6,0.7-5,2.1c-2.7,2.7-2.7,7.2,0,9.9c0.5,0.5,1.1,1,1.8,1.3c0,0,0,0,0,0
			c0,0,0,0,0,0l7,3.3l-0.2,0.2c-0.9,0.9-1.3,2.1-1,3.3c0.2,1.1,0.9,2.1,1.9,2.6c0.1,0,0.1,0.1,0.2,0.1l7.9,3.8
			c0.1,0.1,0.2,0.1,0.3,0.1c0.3,0,0.6-0.2,0.7-0.4c0.2-0.4,0-0.8-0.4-1L49.5,40c0,0-0.1-0.1-0.1-0.1c-0.6-0.3-1.1-0.9-1.2-1.6
			c-0.1-0.4-0.1-1.2,0.6-1.9l0.9-0.9c0,0,0,0,0,0c0.1-0.1,0.1-0.1,0.2-0.2c0.2-0.4,0-0.8-0.4-1l-7.9-3.8c-0.5-0.3-1-0.6-1.4-1
			c-2.1-2.1-2.1-5.6,0-7.7c2.1-2.1,5.6-2.1,7.7,0c0.5,0.5,0.8,1,1.1,1.6c0,0,0,0,0,0.1l3.6,7.7c0.1,0.3,0.4,0.4,0.7,0.4
			c0.1,0,0.2,0,0.3-0.1c0.1,0,0.2-0.1,0.2-0.2c0,0,0,0,0,0l0.9-0.9c0.7-0.7,1.5-0.7,1.9-0.6c0.7,0.1,1.3,0.6,1.6,1.2
			c0,0.1,0.1,0.1,0.1,0.1l3.7,7.8c0.1,0.3,0.4,0.4,0.7,0.4c0.1,0,0.2,0,0.3-0.1c0.2-0.1,0.4-0.3,0.4-0.5c0,0,0,0,0,0
			c0,0,0-0.1,0-0.1c0,0,0,0,0-0.1c0,0,0,0,0-0.1c0,0,0-0.1,0-0.1c0,0,0,0,0,0c0,0,0-0.1,0-0.1l-2.9-8.1c0-0.1,0-0.1,0-0.2
			c-0.2-0.7-0.1-1.4,0.3-2c0.2-0.3,0.8-0.9,1.8-0.9H64c0,0,0,0,0,0c0,0,0,0,0,0c0.1,0,0.2,0,0.3,0c0.4-0.1,0.6-0.6,0.5-1l-3-8.3
			c-0.2-0.5-0.3-1.1-0.3-1.7c0-3,2.5-5.5,5.5-5.5c3,0,5.5,2.5,5.5,5.5c0,0.6-0.1,1.3-0.3,1.9c0,0,0,0.1,0,0.1l-2.9,8
			c-0.1,0.4,0.1,0.8,0.5,1c0,0,0.1,0,0.1,0c0,0,0,0,0.1,0c0,0,0,0,0.1,0c0,0,0,0,0,0c0,0,0,0,0,0h1.3c1,0,1.5,0.6,1.8,0.9
			c0.4,0.6,0.5,1.3,0.3,2c0,0.1,0,0.1,0,0.2l-2.9,8.1c-0.1,0.4,0.1,0.8,0.5,1c0.1,0,0.2,0,0.3,0c0.1,0,0.1,0,0.2,0
			c0.1,0,0.2,0,0.2,0c0.3,0,0.6-0.2,0.7-0.4L76,31c0,0,0.1-0.1,0.1-0.1c0.3-0.6,0.9-1.1,1.6-1.2c0.4-0.1,1.2-0.1,1.9,0.6l0.9,0.9
			c0,0,0,0,0,0c0.1,0.1,0.2,0.1,0.2,0.2c0.1,0.1,0.2,0.1,0.3,0.1c0.3,0,0.6-0.2,0.7-0.4l3.6-7.7c0,0,0,0,0-0.1
			c0.3-0.6,0.6-1.1,1.1-1.6c2.1-2.1,5.6-2.1,7.7,0c1,1,1.6,2.4,1.6,3.9c0,1.5-0.6,2.8-1.6,3.9c-0.4,0.4-0.9,0.7-1.4,1L85,34.2
			c-0.4,0.2-0.6,0.6-0.4,1c0,0.1,0.1,0.2,0.2,0.2c0,0,0,0,0,0l0.9,0.9c0.7,0.7,0.7,1.5,0.6,1.9c-0.1,0.7-0.6,1.3-1.2,1.6
			C85,39.9,85,39.9,85,40l-7.8,3.7c-0.4,0.2-0.6,0.6-0.4,1c0.1,0.3,0.4,0.4,0.7,0.4c0.1,0,0.2,0,0.3-0.1l7.9-3.8
			c0.1,0,0.1-0.1,0.2-0.1c1-0.5,1.7-1.5,1.9-2.6c0.2-1.2-0.2-2.4-1-3.3l-0.2-0.2l7-3.3c0,0,0,0,0,0c0,0,0,0,0,0
			c0.7-0.3,1.3-0.8,1.8-1.3c1.3-1.3,2.1-3.1,2.1-5C97.4,23.7,96.7,21.9,95.4,20.6z M69.4,47.6l15.6-15.6c0.3-0.3,0.3-0.8,0-1.1
			c-0.3-0.3-0.8-0.3-1.1,0L67.8,47V23.6c0-0.4-0.3-0.8-0.8-0.8c-0.4,0-0.8,0.3-0.8,0.8v23L50.5,30.8c-0.3-0.3-0.8-0.3-1.1,0
			c-0.3,0.3-0.3,0.8,0,1.1L65,47.5c-1.4,0.1-2.8,0.4-4.1,0.9c-7.6,2.5-13,9.2-13.7,17.2c-0.2,2.7,0,5.3,0.8,7.8h-0.1l16.9,42.2
			c0.4,0.9,1.2,1.5,2.2,1.5c1,0,1.8-0.6,2.1-1.5l16.4-40.8l0.5-1.3H86c0.6-1.9,0.9-4,0.9-6C87,57.1,79.4,48.8,69.4,47.6z M83.8,74
			l-2.9,7.3c-0.1,0-0.2,0-0.3,0h-8.8c-0.5,0-1,0.4-1,1s0.4,1,1,1h8.3l-9.4,23.4H67c-0.5,0-1,0.4-1,1c0,0.5,0.4,1,1,1h2.9l-2.5,6.3
			c-0.1,0.2-0.3,0.2-0.4,0.2c-0.1,0-0.3,0-0.4-0.2l-7.6-19h8c0.5,0,1-0.4,1-1c0-0.5-0.4-1-1-1h-8.8L50.7,75l-0.4-1
			c-1-2.6-1.4-5.4-1.2-8.2c0.6-7.2,5.5-13.2,12.4-15.5c1.4-0.5,2.8-0.7,4.3-0.8c0.6,0,1.2-0.1,1.8,0c9.8,0.3,17.4,8.2,17.4,18
			C85,69.6,84.6,71.9,83.8,74z"/>
	</g>
</g>
<path d="M36,54"/>
<g>
	<g>
		<g>
			<path class="st1" d="M21,131.7l-4.4,10.9h-3.3l-4.4-10.9h3.7l2.3,7.2l2.3-7.2H21z"/>
		</g>
		<g>
			<path class="st1" d="M33.6,137.7h-8.4c0.1,1.6,1,2.5,2.5,2.5c1.2,0,2-0.5,2.3-1.4h3.4c-0.5,2.4-2.6,4-5.6,4
				c-3.7,0-6.1-2.3-6.1-5.7c0-3.4,2.5-5.7,6-5.7s5.9,2.3,5.9,5.7V137.7z M25.4,135.6H30c-0.4-1-1-1.5-2.2-1.5
				C26.5,134.1,25.8,134.7,25.4,135.6z"/>
		</g>
		<g>
			<path class="st1" d="M47.6,142.7c0,4-2.4,6.5-6.4,6.5c-2.9,0-4.9-1.3-5.8-3.5l3.2-1.3c0.4,1.1,1.4,1.8,2.6,1.8
				c1.8,0,2.9-1.2,2.9-3.2v-1.4c-0.9,0.8-2.1,1.4-3.5,1.4c-3,0-5.4-2.5-5.4-5.7c0-3.2,2.4-5.7,5.4-5.7c1.3,0,2.5,0.5,3.4,1.3v-1.1
				h3.5L47.6,142.7z M44.1,137.1c0-1.4-1.2-2.6-2.6-2.6c-1.4,0-2.6,1.1-2.6,2.6c0,1.4,1.1,2.6,2.6,2.6
				C43,139.7,44.1,138.6,44.1,137.1z"/>
		</g>
		<g>
			<path class="st1" d="M63.5,139.7v2.8c-0.2,0.1-0.6,0.2-0.9,0.2c-1.5,0-2.7-0.7-3.4-1.9c-0.9,1.1-2.2,1.9-3.7,1.9
				c-3,0-5.4-2.5-5.4-5.7c0-3.2,2.4-5.7,5.4-5.7c1.3,0,2.3,0.4,3.1,1.2v-1H62v7c0,0.9,0.5,1.1,1,1.1H63.5z M58.7,137.1
				c0-1.4-1.2-2.6-2.6-2.6c-1.4,0-2.6,1.1-2.6,2.6c0,1.4,1.1,2.6,2.6,2.6C57.6,139.7,58.7,138.6,58.7,137.1z"/>
		</g>
		<g>
			<path class="st1" d="M76,135.7v6.9h-3.5v-6.3c0-1-0.7-1.7-1.7-1.7s-1.8,0.7-1.8,1.7v6.3h-3.5v-10.9H69v1.3c0.8-1,1.9-1.6,3.1-1.6
				C74.3,131.4,76,133.3,76,135.7z"/>
		</g>
		<g>
			<path class="st1" d="M84.8,137.1c0-3.3,2.4-5.7,6.1-5.7c3.3,0,5.5,1.9,6,4.6h-3.6c-0.4-0.9-1.3-1.5-2.4-1.6
				c-1.5,0-2.6,1.1-2.6,2.6c0,1.5,1.1,2.6,2.6,2.6c1.1,0,2-0.6,2.4-1.6h3.6c-0.5,2.7-2.7,4.6-6,4.6
				C87.2,142.8,84.8,140.4,84.8,137.1z"/>
		</g>
		<g>
			<path class="st1" d="M99,127.9c0-1.1,0.9-1.9,1.9-1.9s1.9,0.8,1.9,1.9c0,1-0.9,1.9-1.9,1.9S99,128.9,99,127.9z M99.2,131.7h3.5
				v10.9h-3.5V131.7z"/>
		</g>
		<g>
			<path class="st1" d="M109.9,134.4v3.9c0,0.9,0.5,1.5,1.3,1.5h1.3v2.7c-0.3,0.2-1,0.4-1.7,0.4c-2.3,0-4.3-1.8-4.3-4.1v-4.3h-1.8
				v-2.7h1.8v-4.2h3.5v4.2h2.6v2.7H109.9z"/>
		</g>
		<g>
			<path class="st1" d="M125.6,131.7l-7,17.5h-3.7l2.6-6.3l-4.6-11.2h3.6l2.7,7.2l2.7-7.2H125.6z"/>
		</g>
	</g>
</g>
</svg>
