<?xml version="1.0" encoding="utf-8"?>
<!-- Generator: Adobe Illustrator 21.0.2, SVG Export Plug-In . SVG Version: 6.00 Build 0)  -->
<svg version="1.1" id="Слой_1" xmlns="http://www.w3.org/2000/svg" xmlns:xlink="http://www.w3.org/1999/xlink" x="0px" y="0px"
	 viewBox="0 0 25.9 26" style="enable-background:new 0 0 25.9 26;" xml:space="preserve">
<style type="text/css">
	.st0{fill:#FFFFFF;}
</style>
<path class="st0" d="M8.5,25.1c0.4,0.4,1,0.6,1.5,0.4c0.3-0.1,0.5-0.2,0.7-0.4c0.2-0.2,0.3-0.4,0.4-0.7c0.4-1.2,1-2.2,1.9-3.1
	c1.2-1.2,2.8-2.2,4.6-3.2c1.8-1.1,3.7-2.1,5.2-3.7c1.3-1.3,2.2-2.8,2.7-4.4c0.2-0.6,0-1.2-0.4-1.6l-8-8c-0.4-0.4-1-0.6-1.5-0.4
	c-0.3,0.1-0.5,0.2-0.8,0.4c-0.2,0.2-0.3,0.4-0.4,0.7c-0.4,1.2-1,2.2-1.9,3.1C11.3,5.5,9.7,6.4,8,7.4c-1.8,1.1-3.7,2.1-5.2,3.7
	c-1.3,1.3-2.2,2.8-2.7,4.4C0,15.7,0,15.8,0,16v0c0,0.4,0.2,0.9,0.5,1.2L8.5,25.1z M16,1.6c2.6,2.6,5.4,5.3,8,8
	C21.7,17,11.9,16.6,9.6,24c-2.7-2.6-5.4-5.4-8-8C3.9,8.6,13.7,9,16,1.6z"/>
<path class="st0" d="M9.9,13.3c0.4,0.3,0.8,0.4,1.3,0.4c0.5,0,1.1-0.2,1.7-0.5c0.5,0.5,0.9,1.1,1.4,1.6c-0.2,0.2-0.4,0.3-0.5,0.3
	c-0.2,0-0.3,0-0.4,0c-0.1,0-0.2-0.1-0.3-0.2c-0.1-0.1-0.2-0.1-0.3-0.2c-0.1-0.1-0.2-0.1-0.3-0.1c-0.1,0-0.2,0.1-0.4,0.2
	c-0.1,0.1-0.2,0.2-0.2,0.4c0,0.1,0.1,0.3,0.2,0.5c0.1,0.2,0.3,0.3,0.5,0.4c0.2,0.1,0.5,0.2,0.7,0.2c0.3,0,0.5,0,0.8-0.1
	c0.3-0.1,0.6-0.3,0.9-0.6c0.1,0.1,0.3,0.3,0.4,0.4c0.1,0.1,0.1,0.1,0.2,0.1c0.1,0,0.2,0,0.2-0.1c0.1-0.1,0.1-0.2,0.1-0.2
	c0-0.1,0-0.1-0.1-0.2c-0.1-0.1-0.3-0.2-0.4-0.4c0.2-0.3,0.4-0.6,0.6-0.9c0.1-0.3,0.2-0.6,0.3-0.9c0-0.3,0-0.5-0.1-0.8
	c-0.1-0.2-0.2-0.4-0.5-0.6c-0.3-0.2-0.5-0.4-0.8-0.4c-0.3-0.1-0.5-0.1-0.8-0.1c-0.3,0-0.5,0.1-0.8,0.2c-0.3,0.1-0.5,0.2-0.8,0.4
	c-0.4-0.5-0.9-1-1.3-1.4c0.2-0.2,0.4-0.3,0.6-0.3c0.2,0,0.4,0,0.5,0.1c0.2,0,0.3,0.1,0.5,0.1c0.1,0,0.3,0,0.4-0.1
	c0.1-0.1,0.2-0.2,0.2-0.4c0-0.2-0.1-0.3-0.2-0.5c-0.2-0.2-0.4-0.3-0.6-0.4c-0.2,0-0.5,0-0.7,0c-0.3,0.1-0.5,0.2-0.7,0.3
	c-0.2,0.1-0.4,0.3-0.5,0.4c-0.1-0.1-0.1-0.1-0.2-0.1c-0.1,0-0.1-0.1-0.2-0.1c-0.1,0-0.2,0-0.2,0.1C9.8,9.7,9.8,9.8,9.8,9.9
	c0,0.1,0,0.1,0.1,0.2c0.1,0,0.1,0.1,0.2,0.1c-0.2,0.2-0.4,0.5-0.5,0.8c-0.1,0.3-0.2,0.6-0.2,0.9c0,0.3,0,0.5,0.1,0.8
	C9.5,12.9,9.6,13.1,9.9,13.3z M13.7,12.8c0.1-0.1,0.3-0.1,0.4-0.1c0.1,0,0.3,0,0.4,0c0.1,0,0.3,0.1,0.4,0.2c0.1,0.1,0.2,0.2,0.2,0.4
	c0,0.1,0,0.3,0,0.4c0,0.1-0.1,0.3-0.1,0.4c-0.1,0.1-0.2,0.3-0.2,0.4c-0.4-0.5-0.9-0.9-1.3-1.5C13.5,12.9,13.6,12.9,13.7,12.8z
	 M10.5,11.3c0.1-0.1,0.1-0.3,0.3-0.4c0.4,0.4,0.8,0.8,1.2,1.3c-0.3,0.2-0.6,0.3-0.8,0.3c-0.2,0-0.4-0.1-0.6-0.2
	c-0.1-0.1-0.1-0.2-0.2-0.3c0-0.1,0-0.2,0-0.3C10.4,11.5,10.4,11.4,10.5,11.3z"/>
<path class="st0" d="M9.2,21.6C9.3,21.6,9.3,21.5,9.2,21.6l0.6-0.8c0.3-0.4,0.7-0.9,1.1-1.3c0.5-0.5,0.9-0.8,1.4-1.2h0c0,0,0,0,0,0
	c0.2-0.2,0.2-0.4,0-0.6c-0.1-0.1-0.4-0.2-0.5,0c-0.5,0.4-1,0.8-1.4,1.2c-0.4,0.4-0.8,0.9-1.2,1.4l-0.5,0.8c-0.1,0.2-0.1,0.4,0.1,0.5
	C8.8,21.8,9.1,21.8,9.2,21.6z"/>
<path class="st0" d="M13.8,8L13.8,8c0.5-0.4,1-0.8,1.4-1.2c0.4-0.4,0.8-0.9,1.2-1.4L17,4.6c0.1-0.2,0.1-0.4,0-0.5
	c-0.2-0.2-0.4-0.2-0.6,0c0,0-0.1,0.1-0.1,0.1l-0.5,0.7c-0.3,0.4-0.7,0.9-1.1,1.3c-0.4,0.4-0.9,0.8-1.3,1.2c0,0-0.1,0-0.1,0.1
	c-0.2,0.2-0.2,0.4,0,0.6C13.4,8.1,13.7,8.1,13.8,8z"/>
</svg>
