<?xml version="1.0" encoding="utf-8"?>
<!-- Generator: Adobe Illustrator 21.0.2, SVG Export Plug-In . SVG Version: 6.00 Build 0)  -->
<svg version="1.1" id="Layer_1" xmlns="http://www.w3.org/2000/svg" xmlns:xlink="http://www.w3.org/1999/xlink" x="0px" y="0px"
	 viewBox="0 0 53.9 53.9" style="enable-background:new 0 0 53.9 53.9;" xml:space="preserve">
<style type="text/css">
	.st0{fill:none;}
	.st1{fill:#B3B3B3;}
	.st2{fill:#333333;}
</style>
<g>
	<path class="st0" d="M23.4,15.6c-0.9-0.2-1.6-0.5-2.2-0.6c-2-0.6-4.2-2.2-5.1-2.8c-1.2,0.6-4.7,1.9-4.9,6.8
		c2.4,1.5,3.2,4.3,4.1,5.8c0.6,1,1.1,1.9,2,2.5c1.7,1.2,2.5,1.2,3.5,1.2c0.2,0,0.4,0,0.7,0c1.5,0.1,3.6,1.1,5.5,2.4
		c1.7,1.1,4,1.8,5.1,0.8c0.1-0.1,0.2-0.3,0.2-0.6c-0.2-1.2-2.4-3.2-3.5-3.6c-1.4-0.6-4.3-1.7-5.4-3.6c-0.1-0.2-0.3-0.6-0.2-0.8
		c0.5-0.7,1.2-0.9,1.8-1.1c0.2-0.1,0.8-0.3,0.8-0.3c0.5,0,1.8,0.4,2.2,0.5c0.2,0.1,0.4,0.2,0.5,0.4l1.4,3h3.4
		c-0.4-2.7-1.2-6.2-1.9-6.9C30.4,17.6,26,16.3,23.4,15.6z"/>
	<path class="st0" d="M18.6,41.5h20.5c0.8,0,1.5-0.7,1.5-1.5H16.9C16.9,40.8,17.8,41.5,18.6,41.5z"/>
	<path class="st0" d="M25.8,34.6H39v1.3H25.8h-8.9v0.8v0.6h23.6v-1.4h0v-1.3h0v-6.3c0-0.8-0.8-1.6-1.6-1.6h-9.1
		c1.3,0.9,3.1,2.5,3.4,3.9c0.1,0.7,0.1,1.3-0.4,1.8c-1.8,1.8-4.7,0.6-6.7-0.8c-1.6-1.1-3.5-1.9-4.7-2.1c-0.2,0-0.4,0-0.6,0
		c-1,0-2.2-0.1-3.9-1.3l0,6.2l0,0.2H25.8z"/>
	<path class="st0" d="M25.9,22.8c-0.2,0.1-0.4,0.1-0.6,0.2c-0.3,0.1-0.5,0.1-0.7,0.3c0.5,0.7,1.6,1.5,2.8,2.1h1.2l-1-2.1
		C27.2,23.2,26.4,23,25.9,22.8z"/>
	<path class="st0" d="M26.9,2C13.2,2,2,13.2,2,26.9s11.2,24.9,24.9,24.9s24.9-11.2,24.9-24.9S40.7,2,26.9,2z M41.8,39.9
		c0,1.6-1.3,2.9-2.9,2.9H18.6c-1.6,0-2.9-1.3-2.9-2.9v-3.3v-2.2v-6.2c0-0.3,0.1-0.6,0.2-0.9c-0.6-0.6-1-1.4-1.5-2.1
		c-0.9-1.5-1.5-4-3.8-5.4c-0.2-0.1-0.4-0.4-0.4-0.6c0-6.9,5.9-8.4,6-8.4c0.2-0.1,0.5-0.1,0.7,0.1c0,0,2.7,2.1,4.9,2.8
		c0.5,0.2,1.2,0.4,2.1,0.6c3.9,1.1,7.3,2.1,8.4,3.2c1.2,1.2,2,5.9,2.3,7.8h4.5c1.6,0,2.9,1.3,2.9,2.9V39.9z"/>
	<path class="st1" d="M26.9,0C12.1,0,0,12.1,0,26.9c0,14.8,12.1,26.9,26.9,26.9c14.8,0,26.9-12.1,26.9-26.9C53.9,12.1,41.8,0,26.9,0
		z M26.9,51.9C13.2,51.9,2,40.7,2,26.9S13.2,2,26.9,2s24.9,11.2,24.9,24.9S40.7,51.9,26.9,51.9z"/>
	<path class="st2" d="M38.9,25.4h-4.5c-0.3-1.9-1.1-6.6-2.3-7.8c-1.1-1.1-4.5-2.1-8.4-3.2c-0.8-0.2-1.5-0.4-2.1-0.6
		c-2.1-0.7-4.8-2.8-4.9-2.8c-0.2-0.2-0.5-0.2-0.7-0.1c-0.1,0-6,1.5-6,8.4c0,0.3,0.1,0.5,0.4,0.6c2.3,1.3,2.9,3.9,3.8,5.4
		c0.5,0.8,0.9,1.5,1.5,2.1c-0.1,0.3-0.2,0.6-0.2,0.9v6.2v2.2v3.3c0,1.6,1.3,2.9,2.9,2.9h20.4c1.6,0,2.9-1.3,2.9-2.9V28.3
		C41.8,26.7,40.5,25.4,38.9,25.4z M15.4,24.7c-0.9-1.4-1.7-4.2-4.1-5.8c0.2-4.9,3.7-6.2,4.9-6.8c0.9,0.6,3.1,2.2,5.1,2.8
		c0.5,0.2,1.3,0.4,2.2,0.6c2.6,0.7,7,2,8,2.9c0.7,0.7,1.5,4.2,1.9,6.9h-3.4l-1.4-3c-0.1-0.2-0.3-0.4-0.5-0.4
		c-0.4-0.1-1.7-0.4-2.2-0.5c0,0-0.6,0.2-0.8,0.3c-0.6,0.2-1.3,0.4-1.8,1.1c-0.1,0.2,0.1,0.6,0.2,0.8c1,1.9,3.9,3,5.4,3.6
		c1.2,0.5,3.3,2.5,3.5,3.6c0.1,0.3-0.1,0.5-0.2,0.6C31,32.7,28.7,32,27,30.9c-1.9-1.3-4-2.3-5.5-2.4c-0.2,0-0.5,0-0.7,0
		c-1,0-1.8,0-3.5-1.2C16.5,26.6,16,25.7,15.4,24.7z M28.6,25.4h-1.2c-1.2-0.6-2.3-1.3-2.8-2.1c0.3-0.2,0.4-0.2,0.7-0.3
		c0.2-0.1,0.4-0.1,0.6-0.2c0.5,0.2,1.3,0.4,1.7,0.5L28.6,25.4z M39.1,41.5H18.6c-0.8,0-1.6-0.7-1.6-1.5h23.6
		C40.5,40.8,39.9,41.5,39.1,41.5z M40.6,34.6L40.6,34.6l0,1.3h0v1.4H16.9v-0.6v-0.8h8.9H39v-1.3H25.8h-8.9l0-0.2l0-6.2
		c1.7,1.2,2.9,1.2,3.9,1.3c0.2,0,0.4,0,0.6,0c1.2,0.1,3.1,0.9,4.7,2.1c2,1.4,4.9,2.5,6.7,0.8c0.5-0.5,0.6-1.1,0.4-1.8
		c-0.3-1.4-2.1-3-3.4-3.9h9.1c0.8,0,1.6,0.8,1.6,1.6V34.6z"/>
</g>
</svg>
