<?xml version="1.0" encoding="utf-8"?>
<!-- Generator: Adobe Illustrator 21.0.2, SVG Export Plug-In . SVG Version: 6.00 Build 0)  -->
<svg version="1.1" id="Layer_1" xmlns="http://www.w3.org/2000/svg" xmlns:xlink="http://www.w3.org/1999/xlink" x="0px" y="0px"
	 viewBox="0 0 23 23" style="enable-background:new 0 0 23 23;" xml:space="preserve">
<style type="text/css">
	.st0{fill:#79BAE2;}
	.st1{fill:#61A8DE;}
	.st2{fill:#479FD6;}
	.st3{fill:#FFFFFF;}
</style>
<g>
	<path class="st0" d="M11.5,0C5.2,0,0,4.8,0,10.6C0,14,1.7,17,4.2,18.9V23l4-2.1c1,0.3,2.2,0.4,3.3,0.4c6.4,0,11.5-4.8,11.5-10.6
		S17.9,0,11.5,0z"/>
	<path class="st1" d="M11.5,0.9C5.2,0.9,0,4.8,0,10.6C0,14,1.7,17,4.2,18.9V23l4-2.1c1,0.3,2.2,0.4,3.3,0.4
		c6.4,0,11.5-4.8,11.5-10.6S17.9,0.9,11.5,0.9z"/>
	<g>
		<path class="st2" d="M1.2,15.5C2,16.8,3,18,4.2,18.9V23l4-2.1c1,0.3,2.2,0.4,3.3,0.4c6.4,0,11.5-4.8,11.5-10.6
			c0-1.5-0.4-2.9-1-4.2"/>
	</g>
	<path class="st3" d="M15.9,6.4L4.8,10.8c-0.4,0.1-0.3,0.7,0,0.8l2.8,0.8l1.1,3.3c0.1,0.4,0.6,0.5,0.8,0.2l1.5-1.5l2.9,2.1
		c0.4,0.3,0.8,0.1,0.9-0.4l1.9-9.1C16.7,6.6,16.3,6.3,15.9,6.4L15.9,6.4z M14.5,8.4L9.3,13c-0.1,0-0.1,0.1-0.1,0.2L9,15
		C9,15,8.9,15,8.9,15l-0.8-2.6c0-0.1,0-0.3,0.1-0.3l6.1-3.8C14.5,8.1,14.6,8.3,14.5,8.4L14.5,8.4z"/>
</g>
</svg>
