<?xml version="1.0" encoding="utf-8"?>
<!-- Generator: Adobe Illustrator 21.0.2, SVG Export Plug-In . SVG Version: 6.00 Build 0)  -->
<svg version="1.1" id="Слой_1" xmlns="http://www.w3.org/2000/svg" xmlns:xlink="http://www.w3.org/1999/xlink" x="0px" y="0px"
	 viewBox="0 0 21.1 21.1" style="enable-background:new 0 0 21.1 21.1;" xml:space="preserve">
<style type="text/css">
	.st0{fill:#80A57D;}
</style>
<g>
	<g>
		<path class="st0" d="M10.6,21.1C4.7,21.1,0,16.4,0,10.6C0,4.7,4.7,0,10.6,0c5.8,0,10.6,4.7,10.6,10.6
			C21.1,16.4,16.4,21.1,10.6,21.1z M10.6,0.8c-5.4,0-9.8,4.4-9.8,9.8s4.4,9.8,9.8,9.8s9.8-4.4,9.8-9.8S16,0.8,10.6,0.8z"/>
	</g>
</g>
<g>
	<path class="st0" d="M15.3,10h-1.8c-0.1-0.8-0.4-2.6-0.9-3.1c-0.4-0.4-1.8-0.8-3.3-1.3C9,5.5,8.7,5.5,8.5,5.4
		C7.7,5.1,6.6,4.3,6.6,4.3c-0.1-0.1-0.2-0.1-0.3,0c0,0-2.4,0.6-2.4,3.3C4,7.7,4,7.8,4.1,7.8C5,8.3,5.3,9.3,5.6,9.9
		c0.2,0.3,0.4,0.6,0.6,0.8c0,0.1-0.1,0.2-0.1,0.4v4.6c0,0.6,0.5,1.1,1.1,1.1h8c0.6,0,1.1-0.5,1.1-1.1v-4.6
		C16.4,10.5,15.9,10,15.3,10z M6,9.7C5.7,9.1,5.4,8,4.4,7.4C4.5,5.5,5.9,5,6.3,4.8c0.3,0.3,1.2,0.9,2,1.1C8.5,5.9,8.8,6,9.2,6.1
		c1,0.3,2.8,0.8,3.1,1.1c0.3,0.3,0.6,1.7,0.7,2.7h-1.3l-0.6-1.2c0-0.1-0.1-0.2-0.2-0.2c-0.2,0-0.7-0.2-0.9-0.2c0,0-0.2,0.1-0.3,0.1
		C9.6,8.7,9.3,8.7,9.1,9c-0.1,0.1,0,0.2,0.1,0.3c0.4,0.7,1.6,1.2,2.1,1.4c0.5,0.2,1.3,1,1.4,1.4c0,0.1,0,0.2-0.1,0.2
		c-0.4,0.4-1.4,0.1-2-0.3c-0.7-0.5-1.6-0.9-2.1-0.9c-0.1,0-0.2,0-0.3,0c-0.4,0-0.7,0-1.4-0.5C6.5,10.4,6.3,10.1,6,9.7z M11.2,10
		h-0.5c-0.5-0.2-0.9-0.5-1.1-0.8C9.7,9.1,9.8,9.1,9.9,9c0.1,0,0.2,0,0.2-0.1c0.2,0.1,0.5,0.2,0.7,0.2L11.2,10z M15.3,16.3h-8
		c-0.3,0-0.6-0.3-0.6-0.6h9.3C15.9,16,15.7,16.3,15.3,16.3z M15.9,13.6L15.9,13.6l0,0.5h0v0.5H6.6v-0.5h8.7v-0.5H6.6l0-2.5
		c0.7,0.5,1.1,0.5,1.5,0.5c0.1,0,0.2,0,0.2,0c0.5,0,1.2,0.4,1.9,0.8c0.8,0.5,1.9,1,2.6,0.3c0.2-0.2,0.2-0.4,0.2-0.7
		c-0.1-0.5-0.8-1.2-1.3-1.5h3.6c0.3,0,0.6,0.3,0.6,0.6V13.6z"/>
</g>
</svg>
