<?xml version="1.0" encoding="utf-8"?>
<!-- Generator: Adobe Illustrator 21.0.2, SVG Export Plug-In . SVG Version: 6.00 Build 0)  -->
<svg version="1.1" id="Слой_1" xmlns="http://www.w3.org/2000/svg" xmlns:xlink="http://www.w3.org/1999/xlink" x="0px" y="0px"
	 viewBox="0 0 204.2 186.7" style="enable-background:new 0 0 204.2 186.7;" xml:space="preserve">
<style type="text/css">
	.st0{fill:#66B060;}
</style>
<path class="st0" d="M194.8,176.6c-1.6,1.5-3.1,3-4.6,4.5l-3.7,3.7c-0.2-24-5-48-14.3-70.2c-9.4-22.5-23.2-43.2-40.5-60.4
	c-17.3-17.2-37.9-31-60.5-40.3C48.7,4.7,24.4,0,0,0c24.4,0.1,48.7,4.9,71.1,14.3c22.5,9.3,43,23.2,60.2,40.4
	c17.2,17.2,30.9,37.8,40.2,60.3c9.1,22.1,13.8,46,14,69.8l-3.7-3.7c-1.5-1.5-3-3-4.6-4.5l-4.7-4.5c-1.6-1.5-3.1-2.9-4.7-4.4
	c1.4,1.6,2.9,3.1,4.4,4.7l4.5,4.7c1.5,1.6,3,3.1,4.5,4.6l4.5,4.6l0.4,0.4l0.4-0.4l4.5-4.6c1.5-1.5,3-3,4.5-4.6
	c3-3.1,5.9-6.2,8.8-9.4C201,170.7,197.9,173.6,194.8,176.6z"/>
</svg>
