<?xml version="1.0" encoding="utf-8"?>
<!-- Generator: Adobe Illustrator 21.0.2, SVG Export Plug-In . SVG Version: 6.00 Build 0)  -->
<svg version="1.1" id="Layer_1" xmlns="http://www.w3.org/2000/svg" xmlns:xlink="http://www.w3.org/1999/xlink" x="0px" y="0px"
	 viewBox="0 0 135 153" style="enable-background:new 0 0 135 153;" xml:space="preserve">
<style type="text/css">
	.st0{fill:url(#SVGID_1_);}
	.st1{opacity:0;}
	.st2{fill:url(#SVGID_2_);}
	.st3{fill:#FFFFFF;}
</style>
<g>
	<g>
		<linearGradient id="SVGID_1_" gradientUnits="userSpaceOnUse" x1="85.0252" y1="14.3175" x2="35.9035" y2="99.3987">
			<stop  offset="0" style="stop-color:#ECB591"/>
			<stop  offset="1" style="stop-color:#9D6C57"/>
		</linearGradient>
		<path class="st0" d="M95.4,20.6c-1.3-1.3-3.1-2.1-5-2.1c-1.9,0-3.6,0.7-5,2.1c-0.5,0.5-0.9,1-1.2,1.6c0,0-0.1,0.1-0.1,0.2l-3.3,7
			l-0.2-0.2c-0.9-0.9-2.1-1.2-3.3-1c-1,0.2-1.8,0.7-2.4,1.5c0.1-0.9-0.1-1.8-0.7-2.6c-0.7-1-1.8-1.6-3-1.6h-0.2l2.6-7.2
			c0-0.1,0-0.1,0-0.2c0.2-0.7,0.3-1.3,0.3-2c0-3.9-3.2-7-7-7c-3.9,0-7,3.2-7,7c0,0.7,0.1,1.5,0.3,2.2c0,0,0,0,0,0c0,0,0,0,0,0
			l2.6,7.2h-0.3c-1.2,0-2.3,0.6-3,1.6c-0.4,0.6-0.7,1.3-0.7,2.1c-0.5-0.5-1.2-0.8-1.9-1c-1.2-0.2-2.4,0.2-3.3,1l-0.2,0.2l-3.3-7
			c0-0.1-0.1-0.1-0.1-0.1c-0.3-0.6-0.7-1.2-1.2-1.6c-1.3-1.3-3.1-2.1-5-2.1s-3.6,0.7-5,2.1c-2.7,2.7-2.7,7.2,0,9.9
			c0.5,0.5,1.1,1,1.8,1.3c0,0,0,0,0,0c0,0,0,0,0,0l7,3.3l-0.2,0.2c-0.9,0.9-1.3,2.1-1,3.3c0.2,1.1,0.9,2.1,1.9,2.6
			c0.1,0,0.1,0.1,0.2,0.1l7.9,3.8c0.1,0.1,0.2,0.1,0.3,0.1c0.3,0,0.6-0.2,0.7-0.4c0.2-0.4,0-0.8-0.4-1L49.5,40c0,0-0.1-0.1-0.1-0.1
			c-0.6-0.3-1.1-0.9-1.2-1.6c-0.1-0.4-0.1-1.2,0.6-1.9l0.9-0.9c0,0,0,0,0,0c0.1-0.1,0.1-0.1,0.2-0.2c0.2-0.4,0-0.8-0.4-1l-7.9-3.8
			c-0.5-0.3-1-0.6-1.4-1c-2.1-2.1-2.1-5.6,0-7.7c2.1-2.1,5.6-2.1,7.7,0c0.5,0.5,0.8,1,1.1,1.6c0,0,0,0,0,0.1l3.6,7.7
			c0.1,0.3,0.4,0.4,0.7,0.4c0.1,0,0.2,0,0.3-0.1c0.1,0,0.2-0.1,0.2-0.2c0,0,0,0,0,0l0.9-0.9c0.7-0.7,1.5-0.7,1.9-0.6
			c0.7,0.1,1.3,0.6,1.6,1.2c0,0.1,0.1,0.1,0.1,0.1l3.7,7.8c0.1,0.3,0.4,0.4,0.7,0.4c0.1,0,0.2,0,0.3-0.1c0.2-0.1,0.4-0.3,0.4-0.5
			c0,0,0,0,0,0c0,0,0-0.1,0-0.1c0,0,0,0,0-0.1c0,0,0,0,0-0.1c0,0,0-0.1,0-0.1c0,0,0,0,0,0c0,0,0-0.1,0-0.1l-2.9-8.1
			c0-0.1,0-0.1,0-0.2c-0.2-0.7-0.1-1.4,0.3-2c0.2-0.3,0.8-0.9,1.8-0.9H64c0,0,0,0,0,0c0,0,0,0,0,0c0.1,0,0.2,0,0.3,0
			c0.4-0.1,0.6-0.6,0.5-1l-3-8.3c-0.2-0.5-0.3-1.1-0.3-1.7c0-3,2.5-5.5,5.5-5.5c3,0,5.5,2.5,5.5,5.5c0,0.6-0.1,1.3-0.3,1.9
			c0,0,0,0.1,0,0.1l-2.9,8c-0.1,0.4,0.1,0.8,0.5,1c0,0,0.1,0,0.1,0c0,0,0,0,0.1,0c0,0,0,0,0.1,0c0,0,0,0,0,0c0,0,0,0,0,0h1.3
			c1,0,1.5,0.6,1.8,0.9c0.4,0.6,0.5,1.3,0.3,2c0,0.1,0,0.1,0,0.2l-2.9,8.1c-0.1,0.4,0.1,0.8,0.5,1c0.1,0,0.2,0,0.3,0
			c0.1,0,0.1,0,0.2,0c0.1,0,0.2,0,0.2,0c0.3,0,0.6-0.2,0.7-0.4L76,31c0,0,0.1-0.1,0.1-0.1c0.3-0.6,0.9-1.1,1.6-1.2
			c0.4-0.1,1.2-0.1,1.9,0.6l0.9,0.9c0,0,0,0,0,0c0.1,0.1,0.2,0.1,0.2,0.2c0.1,0.1,0.2,0.1,0.3,0.1c0.3,0,0.6-0.2,0.7-0.4l3.6-7.7
			c0,0,0,0,0-0.1c0.3-0.6,0.6-1.1,1.1-1.6c2.1-2.1,5.6-2.1,7.7,0c1,1,1.6,2.4,1.6,3.9c0,1.5-0.6,2.8-1.6,3.9c-0.4,0.4-0.9,0.7-1.4,1
			L85,34.2c-0.4,0.2-0.6,0.6-0.4,1c0,0.1,0.1,0.2,0.2,0.2c0,0,0,0,0,0l0.9,0.9c0.7,0.7,0.7,1.5,0.6,1.9c-0.1,0.7-0.6,1.3-1.2,1.6
			C85,39.9,85,39.9,85,40l-7.8,3.7c-0.4,0.2-0.6,0.6-0.4,1c0.1,0.3,0.4,0.4,0.7,0.4c0.1,0,0.2,0,0.3-0.1l7.9-3.8
			c0.1,0,0.1-0.1,0.2-0.1c1-0.5,1.7-1.5,1.9-2.6c0.2-1.2-0.2-2.4-1-3.3l-0.2-0.2l7-3.3c0,0,0,0,0,0c0,0,0,0,0,0
			c0.7-0.3,1.3-0.8,1.8-1.3c1.3-1.3,2.1-3.1,2.1-5C97.4,23.7,96.7,21.9,95.4,20.6z M69.4,47.6l15.6-15.6c0.3-0.3,0.3-0.8,0-1.1
			c-0.3-0.3-0.8-0.3-1.1,0L67.8,47V23.6c0-0.4-0.3-0.8-0.8-0.8c-0.4,0-0.8,0.3-0.8,0.8v23L50.5,30.8c-0.3-0.3-0.8-0.3-1.1,0
			c-0.3,0.3-0.3,0.8,0,1.1L65,47.5c-1.4,0.1-2.8,0.4-4.1,0.9c-7.6,2.5-13,9.2-13.7,17.2c-0.2,2.7,0,5.3,0.8,7.8h-0.1l16.9,42.2
			c0.4,0.9,1.2,1.5,2.2,1.5c1,0,1.8-0.6,2.1-1.5l16.4-40.8l0.5-1.3H86c0.6-1.9,0.9-4,0.9-6C87,57.1,79.4,48.8,69.4,47.6z M83.8,74
			l-2.9,7.3c-0.1,0-0.2,0-0.3,0h-8.8c-0.5,0-1,0.4-1,1s0.4,1,1,1h8.3l-9.4,23.4H67c-0.5,0-1,0.4-1,1c0,0.5,0.4,1,1,1h2.9l-2.5,6.3
			c-0.1,0.2-0.3,0.2-0.4,0.2c-0.1,0-0.3,0-0.4-0.2l-7.6-19h8c0.5,0,1-0.4,1-1c0-0.5-0.4-1-1-1h-8.8L50.7,75l-0.4-1
			c-1-2.6-1.4-5.4-1.2-8.2c0.6-7.2,5.5-13.2,12.4-15.5c1.4-0.5,2.8-0.7,4.3-0.8c0.6,0,1.2-0.1,1.8,0c9.8,0.3,17.4,8.2,17.4,18
			C85,69.6,84.6,71.9,83.8,74z M67,56c-4.5,0-8.2,3.7-8.2,8.2c0,4.5,3.7,8.2,8.2,8.2s8.2-3.7,8.2-8.2C75.3,59.7,71.6,56,67,56z
			 M67,70.5c-3.5,0-6.3-2.8-6.3-6.3c0-3.5,2.8-6.3,6.3-6.3s6.3,2.8,6.3,6.3C73.3,67.7,70.5,70.5,67,70.5z"/>
	</g>
</g>
<path d="M36,54"/>
<g class="st1">
	<g>
		<g>
			
				<linearGradient id="SVGID_2_" gradientUnits="userSpaceOnUse" x1="200.4835" y1="3.2342" x2="151.3619" y2="88.3153" gradientTransform="matrix(1 0 0 1 -115.1913 11.0833)">
				<stop  offset="0" style="stop-color:#ECB591"/>
				<stop  offset="1" style="stop-color:#9D6C57"/>
			</linearGradient>
			<path class="st2" d="M69.7,47.6l15.6-15.6c0.3-0.3,0.3-0.8,0-1.1c-0.3-0.3-0.8-0.3-1.1,0L68.1,47V23.6c0-0.4-0.3-0.8-0.8-0.8
				c-0.4,0-0.8,0.3-0.8,0.8v23L50.7,30.8c-0.3-0.3-0.8-0.3-1.1,0c-0.3,0.3-0.3,0.8,0,1.1l15.6,15.6c-1.4,0.1-2.8,0.4-4.1,0.9
				c-7.6,2.5-13,9.2-13.7,17.2c-0.2,2.7,0,5.3,0.8,7.8h-0.1l16.9,42.2c0.4,0.9,1.2,1.5,2.2,1.5s1.8-0.6,2.2-1.5l16.4-40.8l0.5-1.3
				h-0.1c0.6-1.9,0.9-4,0.9-6C87.2,57.1,79.7,48.8,69.7,47.6z M95.7,20.6c-1.3-1.3-3.1-2.1-5-2.1c-1.9,0-3.6,0.7-5,2.1
				c-0.5,0.5-0.9,1-1.2,1.6c0,0-0.1,0.1-0.1,0.2l-3.3,7L81,29.2c-0.9-0.9-2.1-1.2-3.3-1c-1,0.2-1.8,0.7-2.4,1.5
				c0.1-0.9-0.1-1.8-0.7-2.6c-0.7-1-1.8-1.6-3-1.6h-0.2l2.6-7.2c0-0.1,0-0.1,0-0.2c0.2-0.7,0.3-1.3,0.3-2c0-3.9-3.2-7-7-7
				c-3.9,0-7,3.2-7,7c0,0.7,0.1,1.5,0.3,2.2c0,0,0,0,0,0c0,0,0,0,0,0l2.6,7.2h-0.3c-1.2,0-2.3,0.6-3,1.6c-0.4,0.6-0.7,1.3-0.7,2.1
				c-0.5-0.5-1.2-0.8-1.9-1c-1.2-0.2-2.4,0.2-3.3,1l-0.2,0.2l-3.3-7c0-0.1-0.1-0.1-0.1-0.1c-0.3-0.6-0.7-1.2-1.2-1.6
				c-1.3-1.3-3.1-2.1-5-2.1c-1.9,0-3.6,0.7-5,2.1c-2.7,2.7-2.7,7.2,0,9.9c0.5,0.5,1.1,1,1.8,1.3c0,0,0,0,0,0c0,0,0,0,0,0l7,3.3
				l-0.2,0.2c-0.9,0.9-1.3,2.1-1,3.3c0.2,1.1,0.9,2.1,1.9,2.6c0.1,0,0.1,0.1,0.2,0.1l7.9,3.8c0.1,0.1,0.2,0.1,0.3,0.1
				c0.3,0,0.6-0.2,0.7-0.4c0.2-0.4,0-0.8-0.4-1L49.8,40c0,0-0.1-0.1-0.1-0.1c-0.6-0.3-1.1-0.9-1.2-1.6c-0.1-0.4-0.1-1.2,0.6-1.9
				l0.9-0.9c0,0,0,0,0,0c0.1-0.1,0.1-0.1,0.2-0.2c0.2-0.4,0-0.8-0.4-1l-7.9-3.8c-0.5-0.3-1-0.6-1.4-1c-2.1-2.1-2.1-5.6,0-7.7
				c2.1-2.1,5.6-2.1,7.7,0c0.5,0.5,0.8,1,1.1,1.6c0,0,0,0,0,0.1l3.6,7.7c0.1,0.3,0.4,0.4,0.7,0.4c0.1,0,0.2,0,0.3-0.1
				c0.1,0,0.2-0.1,0.2-0.2c0,0,0,0,0,0l0.9-0.9c0.7-0.7,1.5-0.7,1.9-0.6c0.7,0.1,1.3,0.6,1.6,1.2c0,0.1,0.1,0.1,0.1,0.1l3.7,7.8
				c0.1,0.3,0.4,0.4,0.7,0.4c0.1,0,0.2,0,0.3-0.1c0.2-0.1,0.4-0.3,0.4-0.5c0,0,0,0,0,0c0,0,0-0.1,0-0.1c0,0,0,0,0-0.1c0,0,0,0,0-0.1
				c0,0,0-0.1,0-0.1c0,0,0,0,0,0c0,0,0-0.1,0-0.1l-2.9-8.1c0-0.1,0-0.1,0-0.2c-0.2-0.7-0.1-1.4,0.3-2c0.2-0.3,0.8-0.9,1.8-0.9h1.3
				c0,0,0,0,0,0c0,0,0,0,0,0c0.1,0,0.2,0,0.3,0c0.4-0.1,0.6-0.6,0.5-1l-3-8.3c-0.2-0.5-0.3-1.1-0.3-1.7c0-3,2.5-5.5,5.5-5.5
				c3,0,5.5,2.5,5.5,5.5c0,0.6-0.1,1.3-0.3,1.9c0,0,0,0.1,0,0.1l-2.9,8c-0.1,0.4,0.1,0.8,0.5,1c0,0,0.1,0,0.1,0c0,0,0,0,0.1,0
				c0,0,0,0,0.1,0c0,0,0,0,0,0c0,0,0,0,0,0h1.3c1,0,1.5,0.6,1.8,0.9c0.4,0.6,0.5,1.3,0.3,2c0,0.1,0,0.1,0,0.2l-2.9,8.1
				c-0.1,0.4,0.1,0.8,0.5,1c0.1,0,0.2,0,0.3,0c0.1,0,0.1,0,0.2,0c0.1,0,0.2,0,0.2,0c0.3,0,0.6-0.2,0.7-0.4l3.7-7.8
				c0,0,0.1-0.1,0.1-0.1c0.3-0.6,0.9-1.1,1.6-1.2c0.4-0.1,1.2-0.1,1.9,0.6l0.9,0.9c0,0,0,0,0,0c0.1,0.1,0.2,0.1,0.2,0.2
				c0.1,0.1,0.2,0.1,0.3,0.1c0.3,0,0.6-0.2,0.7-0.4l3.6-7.7c0,0,0,0,0-0.1c0.3-0.6,0.6-1.1,1.1-1.6c2.1-2.1,5.6-2.1,7.7,0
				c1,1,1.6,2.4,1.6,3.9c0,1.5-0.6,2.8-1.6,3.9c-0.4,0.4-0.9,0.7-1.4,1l-7.9,3.8c-0.4,0.2-0.6,0.6-0.4,1c0,0.1,0.1,0.2,0.2,0.2
				c0,0,0,0,0,0l0.9,0.9c0.7,0.7,0.7,1.5,0.6,1.9c-0.1,0.7-0.6,1.3-1.2,1.6c-0.1,0-0.1,0.1-0.1,0.1l-7.8,3.7c-0.4,0.2-0.6,0.6-0.4,1
				c0.1,0.3,0.4,0.4,0.7,0.4c0.1,0,0.2,0,0.3-0.1l7.9-3.8c0.1,0,0.1-0.1,0.2-0.1c1-0.5,1.7-1.5,1.9-2.6c0.2-1.2-0.2-2.4-1-3.3
				l-0.2-0.2l7-3.3c0,0,0,0,0,0c0,0,0,0,0,0c0.7-0.3,1.3-0.8,1.8-1.3c1.3-1.3,2.1-3.1,2.1-5C97.7,23.7,97,21.9,95.7,20.6z"/>
		</g>
	</g>
	<path class="st3" d="M67.3,56c-4.5,0-8.2,3.7-8.2,8.2c0,4.5,3.7,8.2,8.2,8.2s8.2-3.7,8.2-8.2C75.5,59.7,71.8,56,67.3,56z
		 M67.3,70.5c-3.5,0-6.3-2.8-6.3-6.3c0-3.5,2.8-6.3,6.3-6.3c3.5,0,6.3,2.8,6.3,6.3C73.6,67.7,70.8,70.5,67.3,70.5z"/>
</g>
</svg>
