<?xml version="1.0" encoding="utf-8"?>
<!-- Generator: Adobe Illustrator 21.0.2, SVG Export Plug-In . SVG Version: 6.00 Build 0)  -->
<svg version="1.1" id="Layer_1" xmlns="http://www.w3.org/2000/svg" xmlns:xlink="http://www.w3.org/1999/xlink" x="0px" y="0px"
	 viewBox="0 0 41 41" style="enable-background:new 0 0 41 41;" xml:space="preserve">
<style type="text/css">
	.st0{fill:#FFFFFF;stroke:#000000;stroke-miterlimit:10;}
	.st1{fill:#AFAFAF;}
	.st2{fill:url(#SVGID_1_);}
</style>
<rect x="1287.6" y="107.1" class="st0" width="1024" height="1024"/>
<path d="M1645.2,494.8"/>
<g>
	<g>
		<g>
			<path class="st1" d="M1571.1,878.7l-21.7,53.9h-16.3l-21.7-53.9h18.3l11.4,35.6l11.4-35.6H1571.1z"/>
		</g>
		<g>
			<path class="st1" d="M1633.4,908.4h-41.5c0.5,7.9,4.9,12.4,12.4,12.4c5.9,0,9.9-2.5,11.4-6.9h16.8c-2.5,11.9-12.8,19.8-27.7,19.8
				c-18.3,0-30.1-11.4-30.1-28.2s12.4-28.2,29.6-28.2s29.1,11.4,29.1,28.2V908.4z M1592.9,898h22.7c-2-4.9-4.9-7.4-10.9-7.4
				C1598.3,890.6,1594.8,893.5,1592.9,898z"/>
		</g>
		<g>
			<path class="st1" d="M1702.5,933.1c0,19.8-11.9,32.1-31.6,32.1c-14.3,0-24.2-6.4-28.7-17.3l15.8-6.4c2,5.4,6.9,8.9,12.8,8.9
				c8.9,0,14.3-5.9,14.3-15.8v-6.9c-4.4,4-10.4,6.9-17.3,6.9c-14.8,0-26.7-12.4-26.7-28.2s11.9-28.2,26.7-28.2
				c6.4,0,12.4,2.5,16.8,6.4v-5.4h17.3L1702.5,933.1z M1685.3,905.4c0-6.9-5.9-12.8-12.8-12.8c-6.9,0-12.8,5.4-12.8,12.8
				c0,6.9,5.4,12.8,12.8,12.8C1679.8,918.2,1685.3,912.8,1685.3,905.4z"/>
		</g>
		<g>
			<path class="st1" d="M1781.1,918.2v13.8c-1,0.5-3,1-4.4,1c-7.4,0-13.3-3.5-16.8-9.4c-4.4,5.4-10.9,9.4-18.3,9.4
				c-14.8,0-26.7-12.4-26.7-28.2c0-15.8,11.9-28.2,26.7-28.2c6.4,0,11.4,2,15.3,5.9v-4.9h16.8v34.6c0,4.4,2.5,5.4,4.9,5.4h2.5V918.2
				z M1757.4,905.4c0-6.9-5.9-12.8-12.8-12.8c-6.9,0-12.8,5.4-12.8,12.8c0,6.9,5.4,12.8,12.8,12.8
				C1752,918.2,1757.4,912.8,1757.4,905.4z"/>
		</g>
		<g>
			<path class="st1" d="M1842.9,898.5v34.1h-17.3v-31.1c0-4.9-3.5-8.4-8.4-8.4s-8.9,3.5-8.9,8.4v31.1H1791v-53.9h17.3v6.4
				c4-4.9,9.4-7.9,15.3-7.9C1834.5,877.2,1842.9,886.6,1842.9,898.5z"/>
		</g>
		<g>
			<path class="st1" d="M1886.3,905.4c0-16.3,11.9-28.2,30.1-28.2c16.3,0,27.2,9.4,29.6,22.7h-17.8c-2-4.4-6.4-7.4-11.9-7.9
				c-7.4,0-12.8,5.4-12.8,12.8c0,7.4,5.4,12.8,12.8,12.8c5.4,0,9.9-3,11.9-7.9h17.8c-2.5,13.3-13.3,22.7-29.6,22.7
				C1898.2,933.6,1886.3,921.7,1886.3,905.4z"/>
		</g>
		<g>
			<path class="st1" d="M1956.5,859.9c0-5.4,4.4-9.4,9.4-9.4c4.9,0,9.4,4,9.4,9.4c0,4.9-4.4,9.4-9.4,9.4
				C1960.9,869.3,1956.5,864.9,1956.5,859.9z M1957.5,878.7h17.3v53.9h-17.3V878.7z"/>
		</g>
		<g>
			<path class="st1" d="M2010.4,892.1v19.3c0,4.4,2.5,7.4,6.4,7.4h6.4v13.3c-1.5,1-4.9,2-8.4,2c-11.4,0-21.2-8.9-21.2-20.3v-21.2
				h-8.9v-13.3h8.9v-20.8h17.3v20.8h12.8v13.3h-13.3V892.1z"/>
		</g>
		<g>
			<path class="st1" d="M2087.9,878.7l-34.6,86.5h-18.3l12.8-31.1l-22.7-55.3h17.8l13.3,35.6l13.3-35.6H2087.9z"/>
		</g>
	</g>
</g>
<g>
	<g>
		
			<linearGradient id="SVGID_1_" gradientUnits="userSpaceOnUse" x1="26.9524" y1="1041.3903" x2="9.1373" y2="1010.5336" gradientTransform="matrix(1 0 0 -1 0 1044.2003)">
			<stop  offset="0" style="stop-color:#ECB591"/>
			<stop  offset="1" style="stop-color:#9D6C57"/>
		</linearGradient>
		<path class="st2" d="M20.5,17.9c-1.6,0-3,1.3-3,3c0,1.6,1.3,3,3,3s3-1.3,3-3C23.5,19.3,22.1,17.9,20.5,17.9z M20.5,23.2
			c-1.3,0-2.3-1-2.3-2.3c0-1.3,1-2.3,2.3-2.3c1.3,0,2.3,1,2.3,2.3C22.7,22.2,21.7,23.2,20.5,23.2z M30.7,5.1
			c-0.5-0.5-1.1-0.8-1.8-0.8s-1.3,0.3-1.8,0.8c-0.2,0.2-0.3,0.4-0.4,0.6c0,0,0,0,0,0.1l-1.2,2.5l-0.1-0.1c-0.3-0.3-0.8-0.4-1.2-0.4
			c-0.4,0.1-0.7,0.3-0.9,0.5c0-0.3,0-0.7-0.3-0.9c-0.3-0.4-0.7-0.6-1.1-0.6h-0.1l0.9-2.6c0,0,0,0,0-0.1C22.9,3.9,23,3.7,23,3.5
			c0-1.4-1.2-2.5-2.5-2.5c-1.4,0-2.5,1.2-2.5,2.5c0,0.3,0,0.5,0.1,0.8l0,0l0,0l0.9,2.6h-0.1c-0.4,0-0.8,0.2-1.1,0.6
			c-0.1,0.2-0.3,0.5-0.3,0.8C17.3,8,17,7.9,16.8,7.9c-0.4-0.1-0.9,0.1-1.2,0.4l-0.1,0.1l-1.2-2.5c0,0,0,0,0,0
			c-0.1-0.2-0.3-0.4-0.4-0.6c-0.5-0.5-1.1-0.8-1.8-0.8c-0.7,0-1.3,0.3-1.8,0.8c-1,1-1,2.6,0,3.6c0.2,0.2,0.4,0.4,0.7,0.5l0,0l0,0
			l2.5,1.2l-0.1,0.1c-0.3,0.3-0.5,0.8-0.4,1.2c0.1,0.4,0.3,0.8,0.7,0.9c0,0,0,0,0.1,0l2.9,1.4c0,0,0.1,0,0.1,0
			c0.1,0,0.2-0.1,0.3-0.1c0.1-0.1,0-0.3-0.1-0.4l-2.7-1.4l0,0c-0.2-0.1-0.4-0.3-0.4-0.6c0-0.1,0-0.4,0.2-0.7l0.3-0.3l0,0
			c0,0,0,0,0.1-0.1c0.1-0.1,0-0.3-0.1-0.4l-2.9-1.4c-0.2-0.1-0.4-0.2-0.5-0.4c-0.8-0.8-0.8-2,0-2.8s2-0.8,2.8,0
			c0.2,0.2,0.3,0.4,0.4,0.6c0,0,0,0,0,0l1.3,2.8c0,0.1,0.1,0.1,0.3,0.1c0,0,0.1,0,0.1,0c0,0,0.1,0,0.1-0.1l0,0L16,8.7
			c0.3-0.3,0.5-0.3,0.7-0.2c0.3,0,0.5,0.2,0.6,0.4c0,0,0,0,0,0l1.3,2.8c0,0.1,0.1,0.1,0.3,0.1c0,0,0.1,0,0.1,0
			c0.1,0,0.1-0.1,0.1-0.2l0,0v0c0,0,0,0,0,0c0,0,0,0,0,0v0l0,0v0l-1.1-2.9c0,0,0,0,0-0.1c-0.1-0.3,0-0.5,0.1-0.7
			c0.1-0.1,0.3-0.3,0.7-0.3h0.5l0,0l0,0c0,0,0.1,0,0.1,0c0.1,0,0.2-0.2,0.2-0.4l-1.1-3c-0.1-0.2-0.1-0.4-0.1-0.6c0-1.1,0.9-2,2-2
			s2,0.9,2,2c0,0.2,0,0.5-0.1,0.7v0l-1.1,2.9c0,0.1,0,0.3,0.2,0.4h0c0,0,0,0,0,0c0,0,0,0,0,0l0,0l0,0H22c0.4,0,0.5,0.2,0.7,0.3
			c0.1,0.2,0.2,0.5,0.1,0.7c0,0,0,0,0,0.1l-1.1,2.9c0,0.1,0,0.3,0.2,0.4c0,0,0.1,0,0.1,0c0,0,0,0,0.1,0s0.1,0,0.1,0
			c0.1,0,0.2-0.1,0.3-0.1l1.3-2.8l0,0c0.1-0.2,0.3-0.4,0.6-0.4c0.1,0,0.4,0,0.7,0.2l0.3,0.3l0,0c0,0,0.1,0,0.1,0.1c0,0,0.1,0,0.1,0
			c0.1,0,0.2-0.1,0.3-0.1l1.3-2.8c0,0,0,0,0,0c0.1-0.2,0.2-0.4,0.4-0.6c0.8-0.8,2-0.8,2.8,0c0.4,0.4,0.6,0.9,0.6,1.4s-0.2,1-0.6,1.4
			c-0.1,0.1-0.3,0.3-0.5,0.4L27,10c-0.1,0.1-0.2,0.2-0.1,0.4c0,0,0,0.1,0.1,0.1l0,0l0.3,0.3c0.3,0.3,0.3,0.5,0.2,0.7
			c0,0.3-0.2,0.5-0.4,0.6c0,0,0,0,0,0.1l-2.8,1.3c-0.1,0.1-0.2,0.2-0.1,0.4c0,0.1,0.1,0.1,0.3,0.1c0,0,0.1,0,0.1,0l2.9-1.4
			c0,0,0,0,0.1,0c0.4-0.2,0.6-0.5,0.7-0.9c0.1-0.4-0.1-0.9-0.4-1.2l-0.1-0.1l2.5-1.2l0,0l0,0c0.3-0.1,0.5-0.3,0.7-0.5
			c0.5-0.5,0.8-1.1,0.8-1.8C31.5,6.2,31.2,5.6,30.7,5.1z M21.3,14.9L27,9.2c0.1-0.1,0.1-0.3,0-0.4s-0.3-0.1-0.4,0l-5.8,5.8V6.2
			c0-0.1-0.1-0.3-0.3-0.3c-0.1,0-0.3,0.1-0.3,0.3v8.3l-5.7-5.7c-0.1-0.1-0.3-0.1-0.4,0c-0.1,0.1-0.1,0.3,0,0.4l5.7,5.7
			c-0.5,0-1,0.1-1.5,0.3c-2.8,0.9-4.7,3.3-5,6.2c-0.1,1,0,1.9,0.3,2.8h0l6.1,15.3c0.1,0.3,0.4,0.5,0.8,0.5c0.4,0,0.7-0.2,0.8-0.5
			l5.9-14.8l0.2-0.5l0,0c0.2-0.7,0.3-1.4,0.3-2.2C27.7,18.3,24.9,15.3,21.3,14.9z M26.5,24.4l-1.1,2.6c0,0-0.1,0-0.1,0h-3.2
			c-0.2,0-0.4,0.1-0.4,0.4c0,0.2,0.1,0.4,0.4,0.4h3l-3.4,8.5h-1.3c-0.2,0-0.4,0.1-0.4,0.4c0,0.2,0.1,0.4,0.4,0.4h1.1l-0.9,2.3
			c0,0.1-0.1,0.1-0.1,0.1s-0.1,0-0.1-0.1l-2.8-6.9h2.9c0.2,0,0.4-0.1,0.4-0.4c0-0.2-0.1-0.4-0.4-0.4h-3.2l-2.7-6.9l-0.1-0.4
			c-0.4-0.9-0.5-2-0.4-3c0.2-2.6,2-4.8,4.5-5.6c0.5-0.2,1-0.3,1.6-0.3c0.2,0,0.4,0,0.7,0c3.6,0.1,6.3,3,6.3,6.5
			C27,22.9,26.8,23.7,26.5,24.4z"/>
	</g>
</g>
</svg>
