<?xml version="1.0" encoding="utf-8"?>
<!-- Generator: Adobe Illustrator 21.0.2, SVG Export Plug-In . SVG Version: 6.00 Build 0)  -->
<svg version="1.1" id="Слой_1" xmlns="http://www.w3.org/2000/svg" xmlns:xlink="http://www.w3.org/1999/xlink" x="0px" y="0px"
	 viewBox="0 0 18 17.2" style="enable-background:new 0 0 18 17.2;" xml:space="preserve">
<style type="text/css">
	.st0{fill:#D24A44;}
</style>
<g>
	<path class="st0" d="M0.2,9.1l2.2,1.7l-0.8,2.6c-0.1,0.2,0,0.4,0.1,0.5C1.8,14,2,14.1,2.2,14.1l2.8,0.1l0.9,2.6
		C5.9,17,6,17.1,6.2,17.2c0.2,0.1,0.4,0,0.5-0.1L9,15.5l2.3,1.6c0.1,0.1,0.2,0.1,0.3,0.1c0.1,0,0.1,0,0.2,0c0.2-0.1,0.3-0.2,0.4-0.4
		l0.9-2.6l2.8-0.1c0.2,0,0.4-0.1,0.5-0.2c0.1-0.1,0.1-0.3,0.1-0.5l-0.8-2.6l2.2-1.7C17.9,8.9,18,8.8,18,8.6c0-0.2-0.1-0.4-0.2-0.5
		l-2.2-1.7l0.8-2.6c0.1-0.2,0-0.4-0.1-0.5c-0.1-0.1-0.3-0.2-0.5-0.2L13.1,3l-0.9-2.6C12.1,0.2,12,0.1,11.8,0c-0.2-0.1-0.4,0-0.5,0.1
		L9,1.7L6.7,0.1C6.6,0,6.4,0,6.2,0C6,0.1,5.9,0.2,5.8,0.4L4.9,3L2.2,3.1C2,3.1,1.8,3.2,1.7,3.3C1.6,3.4,1.6,3.6,1.6,3.8l0.8,2.6
		L0.2,8.1C0.1,8.2,0,8.4,0,8.6C0,8.8,0.1,8.9,0.2,9.1z M10.1,7.2c0-0.1,0.1-0.2,0.2-0.2h0.3c0.1,0,0.2,0.1,0.2,0.2v1.7
		c0,0.2,0.1,0.3,0.2,0.4c0.1,0.1,0.2,0.2,0.4,0.2c0.2,0,0.3,0,0.4-0.1C11.9,9.2,12,9.1,12,8.9V7.2C12,7.1,12.1,7,12.2,7h0.3
		c0.1,0,0.2,0.1,0.2,0.2v1.7c0,0.2,0,0.3,0.2,0.4c0.1,0.1,0.2,0.1,0.4,0.1c0.2,0,0.3,0,0.4-0.1c0.1-0.1,0.2-0.2,0.2-0.4V7.2
		c0-0.1,0.1-0.2,0.2-0.2h0.3c0.1,0,0.2,0.1,0.2,0.2v1.7h0c0,0.4-0.1,0.7-0.4,0.9c-0.3,0.3-0.6,0.4-0.9,0.4c-0.4,0-0.7-0.1-0.9-0.4
		c-0.3,0.3-0.6,0.4-0.9,0.4c-0.4,0-0.7-0.1-0.9-0.4c-0.3-0.3-0.4-0.6-0.4-0.9V7.2z M7,7.4C7.3,7.1,7.7,7,8.2,7c0.4,0,0.8,0.1,1,0.3
		c0.2,0.2,0.3,0.3,0.4,0.4c0,0.1,0,0.1,0,0.2C9.6,8,9.5,8,9.5,8l-2,1.1c0,0,0,0.1,0.1,0.1c0.2,0.2,0.4,0.3,0.6,0.3
		c0.3,0,0.5-0.1,0.6-0.3C8.9,9.1,9,9,9,8.9c0-0.1,0.1-0.2,0.2-0.1l0.3,0c0.1,0,0.1,0,0.2,0.1c0,0.1,0,0.1,0,0.2
		C9.6,9.3,9.5,9.5,9.3,9.7C9,10,8.6,10.2,8.2,10.2C7.7,10.2,7.3,10,7,9.7C6.7,9.4,6.5,9,6.5,8.6C6.5,8.1,6.7,7.7,7,7.4z M3.4,8.2
		c0-0.4,0.1-0.7,0.4-0.9C4.1,7.1,4.4,7,4.8,7c0.4,0,0.7,0.1,1,0.4c0.3,0.3,0.4,0.6,0.4,0.9v1.7c0,0.1-0.1,0.2-0.2,0.2H5.7
		c-0.1,0-0.2-0.1-0.2-0.2V8.2c0-0.2-0.1-0.3-0.2-0.4C5.2,7.7,5,7.6,4.8,7.6c-0.2,0-0.4,0.1-0.5,0.2C4.2,7.9,4.1,8,4.1,8.2v1.7
		c0,0.1-0.1,0.2-0.2,0.2H3.7c-0.1,0-0.2-0.1-0.2-0.2V8.2z"/>
	<path class="st0" d="M8.2,7.7c-0.3,0-0.5,0.1-0.6,0.3C7.4,8.1,7.3,8.3,7.3,8.5l1.4-0.7C8.5,7.7,8.3,7.7,8.2,7.7z"/>
</g>
</svg>
