<?xml version="1.0" encoding="utf-8"?>
<!-- Generator: Adobe Illustrator 21.0.2, SVG Export Plug-In . SVG Version: 6.00 Build 0)  -->
<svg version="1.1" id="Слой_1" xmlns="http://www.w3.org/2000/svg" xmlns:xlink="http://www.w3.org/1999/xlink" x="0px" y="0px"
	 viewBox="0 0 15.3 19.3" style="enable-background:new 0 0 15.3 19.3;" xml:space="preserve">
<style type="text/css">
	.st0{clip-path:url(#SVGID_2_);}
</style>
<g>
	<g>
		<defs>
			<rect id="SVGID_1_" width="15.2" height="19.3"/>
		</defs>
		<clipPath id="SVGID_2_">
			<use xlink:href="#SVGID_1_"  style="overflow:visible;"/>
		</clipPath>
		<path class="st0" d="M11.3,18.6H1.3C0.6,18.6,0,18,0,17.3V4.3C0,3.6,0.6,3,1.3,3h1.3c0.1,0,0.3,0.1,0.3,0.3c0,0.1-0.1,0.3-0.3,0.3
			H1.3c-0.4,0-0.8,0.4-0.8,0.8v12.9c0,0.4,0.4,0.8,0.8,0.8h9.9c0.4,0,0.8-0.4,0.8-0.8V16c0-0.1,0.1-0.3,0.3-0.3
			c0.1,0,0.3,0.1,0.3,0.3v1.3C12.6,18,12,18.6,11.3,18.6L11.3,18.6z M11.3,18.6"/>
		<path class="st0" d="M14,15.8H4c-0.7,0-1.3-0.6-1.3-1.3V1.5c0-0.7,0.6-1.3,1.3-1.3h7.3c0.1,0,0.3,0.1,0.3,0.3
			c0,0.1-0.1,0.3-0.3,0.3H4C3.6,0.7,3.2,1,3.2,1.5v12.9c0,0.4,0.4,0.8,0.8,0.8H14c0.4,0,0.8-0.4,0.8-0.8V4.2C14.8,4.1,14.9,4,15,4
			c0.1,0,0.3,0.1,0.3,0.3v10.2C15.3,15.2,14.7,15.8,14,15.8L14,15.8z M14,15.8"/>
		<path class="st0" d="M15,4.5h-3.7c-0.1,0-0.3-0.1-0.3-0.3V0.5c0-0.1,0.1-0.3,0.3-0.3c0.1,0,0.3,0.1,0.3,0.3V4H15
			c0.1,0,0.3,0.1,0.3,0.3C15.3,4.4,15.2,4.5,15,4.5L15,4.5z M15,4.5"/>
		<path class="st0" d="M15,4.5c-0.1,0-0.1,0-0.2-0.1l-3.7-3.8c-0.1-0.1-0.1-0.3,0-0.4c0.1-0.1,0.3-0.1,0.4,0L15.2,4
			c0.1,0.1,0.1,0.3,0,0.4C15.2,4.5,15.1,4.5,15,4.5L15,4.5z M15,4.5"/>
	</g>
</g>
</svg>
