<?xml version="1.0" encoding="utf-8"?>
<!-- Generator: Adobe Illustrator 21.0.2, SVG Export Plug-In . SVG Version: 6.00 Build 0)  -->
<svg version="1.1" id="Capa_1" xmlns="http://www.w3.org/2000/svg" xmlns:xlink="http://www.w3.org/1999/xlink" x="0px" y="0px"
	 viewBox="0 0 18.9 18.9" style="enable-background:new 0 0 18.9 18.9;" xml:space="preserve">
<g>
	<path d="M17.9,7.3h-1.8c-0.3,0-0.5-0.2-0.6-0.4c-0.1-0.3-0.1-0.5,0.1-0.7l1.2-1.2c0.2-0.2,0.3-0.4,0.3-0.7c0-0.3-0.1-0.5-0.3-0.7
		L15.3,2c-0.4-0.4-1-0.4-1.4,0l-1.2,1.2c-0.2,0.2-0.5,0.3-0.7,0.1c-0.3-0.1-0.4-0.3-0.4-0.6V1c0-0.5-0.4-1-1-1H8.3c-0.5,0-1,0.4-1,1
		v1.8c0,0.3-0.2,0.5-0.4,0.6C6.7,3.5,6.4,3.4,6.2,3.2L4.9,2c-0.4-0.4-1-0.4-1.4,0L2,3.6C1.8,3.7,1.7,4,1.7,4.2
		c0,0.3,0.1,0.5,0.3,0.7l1.2,1.2c0.2,0.2,0.3,0.5,0.1,0.7C3.3,7.2,3,7.3,2.7,7.3H1c-0.5,0-1,0.4-1,1v2.3c0,0.5,0.4,1,1,1h1.8
		c0.3,0,0.5,0.2,0.6,0.4c0.1,0.3,0.1,0.5-0.1,0.7L2,13.9c-0.2,0.2-0.3,0.4-0.3,0.7c0,0.3,0.1,0.5,0.3,0.7l1.6,1.6
		c0.4,0.4,1,0.4,1.4,0l1.2-1.2c0.2-0.2,0.5-0.3,0.7-0.1c0.3,0.1,0.4,0.3,0.4,0.6v1.8c0,0.5,0.4,1,1,1h2.3c0.5,0,1-0.4,1-1v-1.8
		c0-0.3,0.2-0.5,0.4-0.6c0.3-0.1,0.5-0.1,0.7,0.1l1.2,1.2c0.4,0.4,1,0.4,1.4,0l1.6-1.6c0.2-0.2,0.3-0.4,0.3-0.7
		c0-0.3-0.1-0.5-0.3-0.7l-1.2-1.2c-0.2-0.2-0.3-0.5-0.1-0.7c0.1-0.3,0.3-0.4,0.6-0.4h1.8c0.5,0,1-0.4,1-1V8.3
		C18.9,7.8,18.4,7.3,17.9,7.3L17.9,7.3z M18.2,10.6c0,0.2-0.1,0.3-0.3,0.3h-1.8c-0.6,0-1.1,0.3-1.3,0.8c-0.2,0.5-0.1,1.1,0.3,1.5
		l1.2,1.2c0.1,0.1,0.1,0.3,0,0.4l-1.6,1.6c-0.1,0.1-0.3,0.1-0.4,0l-1.2-1.2c-0.4-0.4-1-0.5-1.5-0.3c-0.5,0.2-0.8,0.7-0.8,1.3v1.8
		c0,0.1-0.1,0.3-0.3,0.3H8.3C8.2,18.2,8,18,8,17.9v-1.8c0-0.6-0.3-1.1-0.8-1.3c-0.2-0.1-0.4-0.1-0.5-0.1c-0.4,0-0.7,0.1-1,0.4
		l-1.2,1.2c-0.1,0.1-0.3,0.1-0.4,0l-1.6-1.6c-0.1-0.1-0.1-0.3,0-0.4l1.2-1.2c0.4-0.4,0.5-1,0.3-1.5c-0.2-0.5-0.7-0.8-1.3-0.8H1
		c-0.2,0-0.3-0.1-0.3-0.3V8.3C0.7,8.2,0.8,8,1,8h1.8C3.3,8,3.8,7.7,4,7.2c0.2-0.5,0.1-1.1-0.3-1.5L2.5,4.4c-0.1-0.1-0.1-0.3,0-0.4
		l1.6-1.6c0.1-0.1,0.3-0.1,0.4,0l1.2,1.2c0.4,0.4,1,0.5,1.5,0.3C7.7,3.8,8,3.3,8,2.7V1c0-0.2,0.1-0.3,0.3-0.3h2.3
		c0.2,0,0.3,0.1,0.3,0.3v1.8c0,0.6,0.3,1.1,0.8,1.3c0.5,0.2,1.1,0.1,1.5-0.3l1.2-1.2c0.1-0.1,0.3-0.1,0.4,0l1.6,1.6
		c0.1,0.1,0.1,0.3,0,0.4l-1.2,1.2c-0.4,0.4-0.5,1-0.3,1.5C15.1,7.7,15.6,8,16.1,8h1.8c0.1,0,0.3,0.1,0.3,0.3V10.6z M18.2,10.6"/>
	<path d="M9.4,6.3c-1.7,0-3.1,1.4-3.1,3.1c0,1.7,1.4,3.1,3.1,3.1c1.7,0,3.1-1.4,3.1-3.1C12.6,7.7,11.2,6.3,9.4,6.3L9.4,6.3z
		 M9.4,11.9C8.1,11.9,7,10.8,7,9.4C7,8.1,8.1,7,9.4,7c1.3,0,2.4,1.1,2.4,2.4C11.9,10.8,10.8,11.9,9.4,11.9L9.4,11.9z M9.4,11.9"/>
</g>
</svg>
