<?xml version="1.0" encoding="utf-8"?>
<!-- Generator: Adobe Illustrator 21.0.2, SVG Export Plug-In . SVG Version: 6.00 Build 0)  -->
<svg version="1.1" id="Слой_1" xmlns="http://www.w3.org/2000/svg" xmlns:xlink="http://www.w3.org/1999/xlink" x="0px" y="0px"
	 viewBox="0 0 16.6 18.5" style="enable-background:new 0 0 16.6 18.5;" xml:space="preserve">
<style type="text/css">
	.st0{clip-path:url(#SVGID_2_);}
</style>
<g>
	<g>
		<defs>
			<rect id="SVGID_1_" width="16.6" height="18.5"/>
		</defs>
		<clipPath id="SVGID_2_">
			<use xlink:href="#SVGID_1_"  style="overflow:visible;"/>
		</clipPath>
		<path class="st0" d="M8.3,9.2c-0.4,0-0.7-0.3-0.7-0.7V0.6C7.7,0.3,7.9,0,8.3,0C8.7,0,9,0.3,9,0.6v7.9C9,8.9,8.7,9.2,8.3,9.2
			L8.3,9.2z M8.3,9.2"/>
	</g>
	<path d="M8.3,18.5c-4.6,0-8.3-3.7-8.3-8.3c0-1.8,0.6-3.6,1.7-5C2.8,3.8,4.3,2.7,6,2.2c0.3-0.1,0.7,0.1,0.8,0.4
		C6.9,3,6.7,3.4,6.3,3.5c-3,0.9-5,3.6-5,6.7c0,3.9,3.1,7,7,7c3.9,0,7-3.1,7-7c0-3.1-2.1-5.8-5-6.7C9.9,3.4,9.7,3,9.8,2.7
		c0.1-0.3,0.5-0.5,0.8-0.4c1.7,0.5,3.2,1.5,4.3,2.9c1.1,1.5,1.7,3.2,1.7,5C16.6,14.8,12.9,18.5,8.3,18.5L8.3,18.5z M8.3,18.5"/>
</g>
</svg>
